<svg width="117" height="117" viewBox="0 0 117 117" fill="none" xmlns="http://www.w3.org/2000/svg">
<circle cx="58.8333" cy="58.76" r="58" fill="#2F4151"/>
<rect x="48.4114" y="78.9241" width="3.17188" height="4.98438" rx="1.58594" fill="#BEEEE5"/>
<rect x="54.3021" y="78.9241" width="3.17188" height="4.98438" rx="1.58594" fill="#BEEEE5"/>
<rect x="60.1927" y="78.9241" width="3.17188" height="4.98438" rx="1.58594" fill="#BEEEE5"/>
<rect x="66.0833" y="78.9241" width="3.17188" height="4.98438" rx="1.58594" fill="#BEEEE5"/>
<path d="M11.7095 60.0055C11.7098 59.9649 11.7102 59.9243 11.7106 59.8837C11.719 59.0078 12.4359 58.3047 13.3117 58.3131C14.1876 58.3216 14.8907 59.0385 14.8823 59.9143C14.8818 59.9677 14.8813 60.0212 14.881 60.0747C14.882 60.0902 14.8829 60.1058 14.8835 60.1214C15.7494 82.5639 34.8935 100.674 58.6068 100.674C82.32 100.674 101.464 82.5639 102.33 60.1214C102.331 60.1057 102.331 60.0901 102.332 60.0746C102.332 60.0211 102.332 59.9677 102.331 59.9143C102.323 59.0385 103.026 58.3216 103.902 58.3131C104.778 58.3047 105.494 59.0078 105.503 59.8837C105.503 59.9244 105.504 59.9651 105.504 60.0059C105.505 60.04 105.506 60.0744 105.505 60.1091C105.505 60.188 105.505 60.2669 105.505 60.3459H105.496C104.51 84.5311 83.8945 103.846 58.6068 103.846C33.319 103.846 12.7031 84.5311 11.7179 60.3459H11.7083C11.7083 60.2671 11.7085 60.1882 11.7089 60.1094C11.7079 60.0745 11.7082 60.0399 11.7095 60.0055Z" fill="#BEEEE5"/>
<path d="M58.1445 13.4497C58.2984 13.4483 58.4525 13.4475 58.6068 13.4475C58.761 13.4475 58.9151 13.4483 59.069 13.4497C59.9449 13.4582 60.648 14.1751 60.6396 15.0509C60.6311 15.9268 59.9142 16.6299 59.0384 16.6215C58.8947 16.6201 58.7508 16.6194 58.6068 16.6194C58.4627 16.6194 58.3188 16.6201 58.1751 16.6215C57.2993 16.6299 56.5824 15.9268 56.5739 15.0509C56.5655 14.1751 57.2686 13.4582 58.1445 13.4497Z" fill="#BEEEE5"/>
<path d="M51.7582 15.5195C51.9197 16.3803 51.3527 17.2091 50.4919 17.3707C50.2106 17.4234 49.9304 17.4789 49.6511 17.537C48.7935 17.7154 47.9537 17.1649 47.7753 16.3074C47.5968 15.4499 48.1473 14.6101 49.0048 14.4316C49.3045 14.3693 49.6052 14.3098 49.907 14.2532C50.7678 14.0917 51.5966 14.6586 51.7582 15.5195Z" fill="#BEEEE5"/>
<path d="M65.4554 15.5195C65.6169 14.6586 66.4457 14.0917 67.3066 14.2532C67.6083 14.3098 67.909 14.3693 68.2087 14.4316C69.0662 14.6101 69.6167 15.4499 69.4382 16.3074C69.2598 17.1649 68.42 17.7154 67.5625 17.537C67.2832 17.4789 67.0029 17.4234 66.7217 17.3707C65.8608 17.2091 65.2938 16.3803 65.4554 15.5195Z" fill="#BEEEE5"/>
<path d="M43.1439 17.7106C43.4714 18.5229 43.0784 19.447 42.266 19.7745C42.0007 19.8815 41.7366 19.991 41.4738 20.103C40.6681 20.4465 39.7365 20.0718 39.393 19.266C39.0495 18.4603 39.4242 17.5287 40.23 17.1852C40.5119 17.065 40.7953 16.9475 41.08 16.8327C41.8924 16.5052 42.8164 16.8982 43.1439 17.7106Z" fill="#BEEEE5"/>
<path d="M74.0696 17.7106C74.3971 16.8982 75.3212 16.5052 76.1335 16.8327C76.4183 16.9475 76.7016 17.065 76.9836 17.1852C77.7893 17.5287 78.164 18.4603 77.8205 19.266C77.4771 20.0718 76.5454 20.4465 75.7397 20.103C75.4769 19.991 75.2129 19.8815 74.9475 19.7745C74.1351 19.447 73.7421 18.5229 74.0696 17.7106Z" fill="#BEEEE5"/>
<path d="M35.1276 21.5508C35.6077 22.2833 35.403 23.2664 34.6704 23.7465C34.431 23.9035 34.1932 24.0627 33.9571 24.2241C33.2341 24.7185 32.2472 24.5331 31.7528 23.8101C31.2584 23.0871 31.4437 22.1002 32.1668 21.6058C32.42 21.4327 32.675 21.2619 32.9318 21.0936C33.6643 20.6135 34.6474 20.8182 35.1276 21.5508Z" fill="#BEEEE5"/>
<path d="M82.086 21.5508C82.5661 20.8182 83.5492 20.6135 84.2817 21.0937C84.5385 21.2619 84.7935 21.4327 85.0468 21.6058C85.7698 22.1002 85.9551 23.0871 85.4607 23.8101C84.9664 24.5332 83.9795 24.7185 83.2564 24.2241C83.0203 24.0627 82.7825 23.9035 82.5431 23.7465C81.8105 23.2664 81.6058 22.2833 82.086 21.5508Z" fill="#BEEEE5"/>
<path d="M28.0144 26.8817C28.6277 27.5071 28.6179 28.5112 27.9925 29.1244C27.7881 29.3249 27.5857 29.5273 27.3853 29.7317C26.772 30.3571 25.7679 30.3669 25.1425 29.7536C24.5171 29.1403 24.5074 28.1362 25.1206 27.5108C25.3355 27.2917 25.5525 27.0747 25.7717 26.8598C26.397 26.2465 27.4011 26.2563 28.0144 26.8817Z" fill="#BEEEE5"/>
<path d="M89.1991 26.8817C89.8124 26.2563 90.8165 26.2465 91.4419 26.8598C91.661 27.0747 91.878 27.2917 92.0929 27.5109C92.7062 28.1362 92.6964 29.1403 92.071 29.7536C91.4456 30.3669 90.4415 30.3571 89.8283 29.7317C89.6278 29.5273 89.4254 29.3249 89.221 29.1244C88.5956 28.5112 88.5858 27.5071 89.1991 26.8817Z" fill="#BEEEE5"/>
<path d="M22.0709 33.492C22.794 33.9863 22.9793 34.9732 22.4849 35.6963C22.3235 35.9324 22.1643 36.1702 22.0073 36.4096C21.5272 37.1422 20.5441 37.3469 19.8116 36.8667C19.079 36.3866 18.8743 35.4035 19.3545 34.671C19.5227 34.4142 19.6935 34.1592 19.8666 33.906C20.361 33.1829 21.3479 32.9976 22.0709 33.492Z" fill="#BEEEE5"/>
<path d="M95.1426 33.492C95.8656 32.9976 96.8525 33.1829 97.3469 33.906C97.52 34.1592 97.6908 34.4142 97.8591 34.671C98.3392 35.4035 98.1345 36.3866 97.4019 36.8667C96.6694 37.3469 95.6863 37.1422 95.2062 36.4096C95.0493 36.1702 94.8901 35.9324 94.7286 35.6963C94.2342 34.9733 94.4196 33.9863 95.1426 33.492Z" fill="#BEEEE5"/>
<path d="M17.5268 41.1322C18.3326 41.4757 18.7073 42.4073 18.3638 43.213C18.2518 43.4758 18.1423 43.7398 18.0353 44.0052C17.7078 44.8176 16.7837 45.2106 15.9714 44.8831C15.159 44.5556 14.766 43.6316 15.0935 42.8192C15.2083 42.5344 15.3258 42.2511 15.446 41.9691C15.7895 41.1634 16.7211 40.7887 17.5268 41.1322Z" fill="#BEEEE5"/>
<path d="M99.6867 41.1322C100.492 40.7887 101.424 41.1634 101.768 41.9691C101.888 42.2511 102.005 42.5345 102.12 42.8192C102.448 43.6316 102.054 44.5556 101.242 44.8831C100.43 45.2106 99.5057 44.8176 99.1782 44.0052C99.0712 43.7399 98.9617 43.4758 98.8497 43.213C98.5062 42.4073 98.881 41.4757 99.6867 41.1322Z" fill="#BEEEE5"/>
<path d="M14.5682 49.5145C15.4258 49.6929 15.9763 50.5327 15.7978 51.3902C15.7397 51.6695 15.6842 51.9498 15.6315 52.2311C15.4699 53.0919 14.6411 53.6589 13.7803 53.4973C12.9194 53.3358 12.3525 52.507 12.514 51.6461C12.5706 51.3444 12.6301 51.0437 12.6925 50.744C12.8709 49.8865 13.7107 49.336 14.5682 49.5145Z" fill="#BEEEE5"/>
<path d="M102.645 49.5145C103.503 49.336 104.343 49.8865 104.521 50.744C104.583 51.0437 104.643 51.3444 104.7 51.6462C104.861 52.507 104.294 53.3358 103.433 53.4973C102.572 53.6589 101.744 53.0919 101.582 52.2311C101.529 51.9498 101.474 51.6695 101.416 51.3902C101.237 50.5327 101.788 49.6929 102.645 49.5145Z" fill="#BEEEE5"/>
<circle cx="58.973" cy="58.5908" r="2" transform="rotate(-46.7772 58.973 58.5908)" stroke="#BEEEE5" stroke-width="3.25"/>
<path d="M72.3136 46.2553C72.881 45.6517 72.8515 44.7024 72.2478 44.135C71.6442 43.5677 70.6949 43.5971 70.1275 44.2008L72.3136 46.2553ZM61.7628 57.4818L72.3136 46.2553L70.1275 44.2008L59.5768 55.4273L61.7628 57.4818Z" fill="#BEEEE5"/>
</svg>
