<svg width="141" height="37" viewBox="0 0 141 37" fill="none" xmlns="http://www.w3.org/2000/svg">
<path d="M21.2501 27.76V30.76L24.2501 32.26V33.76H12.2501L12.2441 32.266L15.2501 30.76V27.76H4.73806C4.54109 27.7588 4.34629 27.7188 4.16482 27.6422C3.98335 27.5656 3.81878 27.4539 3.68055 27.3136C3.54231 27.1733 3.43313 27.0071 3.35926 26.8245C3.28539 26.6419 3.24828 26.4465 3.25006 26.2495V6.77051C3.25006 5.93651 3.93256 5.26001 4.73806 5.26001H31.7621C32.5841 5.26001 33.2501 5.93351 33.2501 6.77051V26.2495C33.2501 27.0835 32.5676 27.76 31.7621 27.76H21.2501ZM6.25006 21.76V24.76H30.2501V21.76H6.25006Z" fill="#2F4151"/>
<path d="M15.6473 14.791C15.6319 14.7843 15.6144 14.7805 15.5965 14.7813C15.3833 14.7885 15.1554 14.8007 14.9459 14.7868C14.9109 14.7817 14.8972 14.78 14.8868 14.7594L14.8872 14.7657L14.8755 14.722C14.8459 14.645 14.8509 14.5402 14.8264 14.4506C14.818 14.417 14.7935 14.3669 14.7539 14.3492C14.7293 14.3345 14.6852 14.3307 14.6568 14.3425C14.6281 14.3538 14.6181 14.3652 14.6081 14.3745C14.564 14.4245 14.556 14.4897 14.5448 14.5419C14.5336 14.6084 14.5127 14.7498 14.5023 14.8166C14.5002 14.8293 14.4977 14.8448 14.4948 14.8625C14.4615 14.6425 14.4311 14.422 14.4103 14.202C14.3999 14.125 14.4015 14.0501 14.3457 13.9802C14.3361 13.9693 14.3195 13.9537 14.2936 13.9432C14.2512 13.923 14.1895 13.9386 14.1612 13.9638C14.0991 14.0164 14.0758 14.0888 14.0508 14.1612C14.0479 14.1662 14.0479 14.1679 14.0483 14.1687V14.17H14.0475C14.0475 14.17 14.0475 14.1712 14.0471 14.1717V14.1734C14.045 14.1801 14.0429 14.1881 14.0416 14.1948C14.0254 14.2861 14.0037 14.4296 13.9912 14.5226C13.9704 14.6404 13.9646 14.7674 13.9334 14.8747C13.9171 14.8516 13.9009 14.8276 13.8763 14.8053C13.8126 14.743 13.698 14.7493 13.6472 14.8255C13.6168 14.8705 13.6064 14.9122 13.6022 14.9559C13.5822 14.99 13.5747 15.0279 13.5664 15.064C13.5285 15.2378 13.5081 15.4208 13.4831 15.6005C13.3648 14.9744 13.2507 14.3442 13.1632 13.7139C13.1107 13.3559 13.0787 12.9987 13.0262 12.6398C13.0024 12.4959 12.9879 12.3617 12.9383 12.2174C12.9195 12.1614 12.8679 12.1 12.7954 12.1059C12.7367 12.1143 12.7184 12.1349 12.693 12.1703C12.6334 12.2923 12.6409 12.4345 12.628 12.5578C12.6047 13.1459 12.5068 13.7678 12.421 14.3766C12.3839 14.616 12.3435 14.8537 12.2931 15.0893L12.2585 14.9454L12.2535 14.9248C12.2115 14.8604 12.1486 14.7788 12.0573 14.7754C12.0344 14.7746 11.9986 14.7737 11.9657 14.7729C11.9528 14.6585 11.9382 14.4986 11.9257 14.3904C11.9174 14.3294 11.9116 14.2453 11.8537 14.1944C11.7941 14.1393 11.6946 14.1607 11.6562 14.2184C11.6196 14.2714 11.6212 14.3008 11.6067 14.353C11.5783 14.4847 11.55 14.621 11.5246 14.7514C11.5255 14.7481 11.5246 14.7535 11.5238 14.7552C11.5221 14.762 11.5192 14.7716 11.5163 14.7763C11.5155 14.7784 11.5146 14.7792 11.5142 14.78H11.5113C11.1906 14.7918 10.8715 14.8095 10.5529 14.857C10.5054 14.8659 10.5141 14.9281 10.5529 14.934C10.7457 14.9635 10.9386 14.9795 11.1314 14.9925C11.251 15.0001 11.3734 15.0056 11.493 15.0098C11.5321 15.0123 11.5725 15.0106 11.6104 14.9934C11.6691 14.9664 11.705 14.9252 11.7291 14.876C11.75 14.9387 11.7891 14.9984 11.8591 15.0148C11.8782 15.0199 11.8949 15.0203 11.9124 15.0199C11.9432 15.019 11.9945 15.0178 12.0319 15.0165C12.0349 15.0194 12.0382 15.0224 12.0415 15.0257C12.0523 15.0708 12.1373 15.4225 12.1465 15.4595C12.1365 15.5298 12.1252 15.6005 12.1252 15.6779C12.1257 15.6939 12.1282 15.7208 12.1431 15.7465C12.1761 15.8104 12.2702 15.823 12.3185 15.7789C12.3439 15.7582 12.3556 15.7313 12.366 15.7073C12.5043 15.287 12.5784 14.8457 12.6471 14.4115C12.7217 13.9184 12.7838 13.4257 12.8358 12.9301C12.8696 13.2023 12.8929 13.4775 12.9362 13.7455C13.0378 14.4616 13.1636 15.1705 13.3052 15.8794C13.3123 15.9392 13.3194 15.9926 13.3381 16.0586C13.3494 16.1016 13.3798 16.1659 13.4319 16.1857C13.6251 16.2501 13.6509 15.9779 13.6764 15.8529C13.718 15.6114 13.7368 15.3661 13.788 15.128C13.8013 15.1217 13.8121 15.1107 13.8184 15.0943C13.828 15.1036 13.8384 15.1124 13.8509 15.1217C13.9079 15.168 14.0158 15.1675 14.0716 15.1032C14.1695 14.9849 14.1695 14.8545 14.1941 14.7195C14.2003 14.6761 14.2095 14.6101 14.2187 14.5449C14.2207 14.5596 14.2224 14.5747 14.2245 14.5895C14.2595 14.849 14.2995 15.1061 14.342 15.3636C14.3574 15.4292 14.3682 15.4911 14.4511 15.5243C14.6269 15.5651 14.6502 15.3337 14.6727 15.2142C14.6727 15.2142 14.7018 15.0253 14.7181 14.9197C14.8164 15.0321 15.0101 15.0232 15.1563 15.0228C15.2629 15.0224 15.3687 15.0194 15.4745 15.0157C15.3912 15.2824 15.2745 15.5374 15.125 15.7734C15.0734 15.8432 15.0234 15.9236 14.9692 15.9905L14.8551 16.1272C14.8247 16.168 14.766 16.2173 14.7322 16.256C14.6514 16.3409 14.5577 16.4188 14.4677 16.4928C14.4407 16.5122 14.3136 16.6069 14.2891 16.6241C14.2353 16.6578 14.1545 16.7061 14.1008 16.7406C14.0237 16.7836 13.9433 16.8218 13.8646 16.8618C11.9174 17.7281 9.744 16.3094 9.73317 14.1574C9.71984 13.1851 10.2034 12.2376 10.9823 11.6608C10.9981 11.649 11.0027 11.6267 10.9919 11.6094C10.9806 11.5913 10.9573 11.5859 10.9394 11.5968C10.5158 11.8623 10.1568 12.2405 9.90977 12.6861C8.50777 15.2866 11.0535 18.1951 13.7913 17.1702C13.9325 17.1155 14.0958 17.0398 14.2262 16.9653C14.2849 16.9287 14.3724 16.8753 14.4311 16.8383C14.4573 16.8185 14.5956 16.7179 14.6248 16.6948C14.6993 16.6338 14.7706 16.5686 14.8422 16.5042C14.8759 16.4697 14.9422 16.3999 14.9759 16.3654C15.0788 16.256 15.1921 16.1117 15.2745 15.9867C15.4945 15.6695 15.6448 15.3051 15.7373 14.9307C15.7544 14.852 15.7044 14.8007 15.6469 14.7897L15.6473 14.791ZM11.5205 14.7813H11.518C11.52 14.7809 11.5225 14.7805 11.5221 14.7809C11.5213 14.7809 11.5242 14.7813 11.5205 14.7813ZM11.8657 14.3639V14.3631C11.8657 14.3631 11.8666 14.3618 11.8657 14.3639ZM12.0199 15.0093C12.0199 15.0093 12.0228 15.0106 12.0257 15.0131C12.0232 15.0119 12.0211 15.0106 12.0199 15.0093ZM13.5989 15.0257V15.0266C13.5989 15.0266 13.5989 15.0262 13.5989 15.0257ZM13.6451 15.1082C13.6555 15.1133 13.6668 15.1183 13.6784 15.1229C13.6664 15.12 13.6555 15.1149 13.6451 15.1082ZM13.8284 15.0047C13.8284 14.9984 13.8288 14.9921 13.8292 14.9862C13.8467 15.0001 13.8505 15.0098 13.8284 15.0047Z" fill="#45CEB3"/>
<path d="M20.3927 13.1371C20.2228 12.9819 19.9945 12.9041 19.7088 12.9041C19.4231 12.9041 19.1952 12.9819 19.0266 13.1371C18.8574 13.2924 18.7687 13.5158 18.76 13.8065C18.7579 13.87 18.7567 13.9643 18.7567 14.0888C18.7567 14.2134 18.7579 14.3042 18.76 14.3678C18.7687 14.6652 18.8554 14.8895 19.0199 15.0405C19.1844 15.1916 19.4143 15.2669 19.7088 15.2669C20.0033 15.2669 20.2332 15.1916 20.3977 15.0405C20.5623 14.8895 20.6502 14.6652 20.661 14.3678C20.6651 14.2407 20.6676 14.1477 20.6676 14.0888C20.6676 14.0299 20.6656 13.9336 20.661 13.8065C20.6522 13.5154 20.5631 13.2924 20.3927 13.1371ZM20.1961 14.3514C20.1895 14.5331 20.1428 14.6682 20.0566 14.7569C19.97 14.8457 19.8542 14.8899 19.7088 14.8899C19.5635 14.8899 19.4485 14.8457 19.3627 14.7569C19.2773 14.6682 19.2311 14.5331 19.2244 14.3514C19.2223 14.2857 19.2211 14.197 19.2211 14.0855C19.2211 13.974 19.2223 13.8831 19.2244 13.8196C19.2311 13.6378 19.2773 13.5028 19.3639 13.4144C19.4506 13.3256 19.5655 13.2814 19.7084 13.2814C19.8513 13.2814 19.9696 13.3256 20.0562 13.4144C20.1428 13.5032 20.1895 13.6382 20.1957 13.8196C20.1999 13.9466 20.2024 14.035 20.2024 14.0855C20.2024 14.1313 20.2007 14.2201 20.1961 14.3514Z" fill="#45CEB3"/>
<path d="M22.4253 14.2924C22.562 14.2444 22.6686 14.1662 22.7452 14.0576C22.8223 13.9491 22.8606 13.8153 22.8606 13.6554C22.8606 13.4257 22.7852 13.2486 22.6349 13.1236C22.4841 12.9987 22.2766 12.9364 22.0126 12.9364H21.1712C21.1475 12.9364 21.1283 12.944 21.1141 12.9595C21.1 12.9747 21.0929 12.9945 21.0929 13.0184V15.1553C21.0929 15.1772 21.1004 15.1957 21.1158 15.2113C21.1308 15.2264 21.1495 15.2344 21.1712 15.2344H21.4669C21.4907 15.2344 21.5098 15.2269 21.524 15.2113C21.5382 15.1961 21.5452 15.1772 21.5452 15.1553V14.3677H21.9967L22.4158 15.1457C22.4308 15.1743 22.4478 15.1961 22.4662 15.2113C22.4845 15.2264 22.5111 15.2344 22.5457 15.2344H22.8414C22.8589 15.2344 22.8743 15.2277 22.8885 15.2147C22.9027 15.2016 22.9098 15.1852 22.9098 15.1654C22.9098 15.1545 22.9064 15.1423 22.9002 15.1292L22.4258 14.2924H22.4253ZM22.2971 13.9083C22.2308 13.9672 22.1329 13.9971 22.003 13.9971H21.5448V13.3012H22.003C22.1329 13.3012 22.2308 13.3319 22.2971 13.3929C22.3633 13.4543 22.3962 13.5406 22.3962 13.6521C22.3962 13.7636 22.3633 13.849 22.2971 13.9079V13.9083Z" fill="#45CEB3"/>
<path d="M28.3916 15.051L27.2857 14.488L27.4124 14.857H27.0221V13.9104C27.0221 13.9104 27.0221 13.8519 26.9571 13.8519H26.683C26.6039 13.8519 26.6181 13.9045 26.6181 13.9045V14.857H26.3852V13.631C26.3852 13.631 26.3852 13.5557 26.3202 13.5557H26.0462C25.967 13.5557 25.9812 13.6234 25.9812 13.6234V14.8566H25.7459V14.1308C25.7459 14.1308 25.7459 14.085 25.6809 14.085H25.4068C25.3277 14.085 25.3418 14.1262 25.3418 14.1262V14.8562H23.7182V14.2554H24.7158C24.7396 14.2554 24.7591 14.2482 24.7741 14.2339C24.7891 14.2196 24.797 14.2007 24.797 14.1763V13.9726C24.797 13.9486 24.7895 13.9293 24.7741 13.915C24.7591 13.9007 24.7396 13.8935 24.7158 13.8935H23.7182V13.3125H24.7875C24.8112 13.3125 24.8308 13.3054 24.8458 13.2911C24.8608 13.2767 24.8687 13.2578 24.8687 13.2334V13.0167C24.8687 12.9928 24.8612 12.973 24.8458 12.9578C24.8308 12.9427 24.8112 12.9347 24.7875 12.9347H23.3575C23.3338 12.9347 23.3146 12.9423 23.3005 12.9578C23.2863 12.973 23.2792 12.9928 23.2792 13.0167V15.1536C23.2792 15.1755 23.2867 15.194 23.3021 15.2096C23.3171 15.2247 23.3359 15.2327 23.3575 15.2327H27.3328L27.2203 15.4565L28.3912 15.0493L28.3916 15.051Z" fill="#45CEB3"/>
<path d="M18.3051 12.96C18.2901 12.9449 18.2706 12.9369 18.2468 12.9369H17.9936C17.9503 12.9369 17.9178 12.9579 17.8961 12.9991L17.2626 14.1806L16.5937 12.9991C16.5741 12.9575 16.5416 12.9369 16.4962 12.9369H16.2813C16.2575 12.9369 16.2379 12.9444 16.2229 12.96C16.208 12.9752 16.2 12.9949 16.2 13.0189V15.1558C16.2 15.1625 16.2009 15.1684 16.2017 15.1743C16.1971 15.29 16.1909 15.4495 16.1909 15.4495L16.1792 15.7175C16.1771 15.765 16.1496 15.8731 16.1367 15.9005C14.8072 18.7227 10.8782 18.9222 9.25333 16.2367C8.29658 14.6858 8.56815 12.5557 9.88352 11.3002C10.6599 10.5408 11.7241 10.1407 12.7992 10.1012C12.8491 10.0982 12.8537 10.0254 12.8029 10.017C11.2905 9.80076 9.74232 10.6771 8.98259 11.9961C7.25903 14.9303 9.50449 18.6049 12.8687 18.3921C14.379 18.3104 15.8547 17.3318 16.5024 15.9577C16.5133 15.9346 16.5349 15.8883 16.5437 15.7528C16.5524 15.6173 16.5907 13.7346 16.5907 13.7346L17.0872 14.611C17.1156 14.6589 17.1522 14.6833 17.1976 14.6833H17.3309C17.3763 14.6833 17.4134 14.6593 17.4413 14.611L17.8961 13.7346V15.1558C17.8961 15.1777 17.9036 15.1962 17.919 15.2118C17.934 15.2269 17.9528 15.2349 17.9744 15.2349H18.2472C18.271 15.2349 18.2906 15.2277 18.3055 15.2134C18.3205 15.1991 18.3285 15.1802 18.3285 15.1558V13.0189C18.3285 12.9949 18.321 12.9752 18.3055 12.96H18.3051Z" fill="#45CEB3"/>
<path d="M78.7784 20.1382C78.739 16.1809 82.0054 14.2829 82.1515 14.187C80.3157 11.5029 77.4557 11.1346 76.4378 11.0927C74.0057 10.8457 71.6899 12.5252 70.4561 12.5252C69.2248 12.5252 67.3185 11.1289 65.3018 11.1644C62.6488 11.2038 60.2034 12.7075 58.8381 15.0824C56.0829 19.862 58.1333 26.9454 60.8181 30.8246C62.1306 32.7207 63.6959 34.8543 65.7495 34.7762C67.7287 34.6981 68.4755 33.4961 70.8682 33.4961C73.2609 33.4961 73.9327 34.7762 76.0263 34.7362C78.1548 34.6975 79.5042 32.8039 80.8059 30.9002C82.3128 28.6974 82.9332 26.5644 82.97 26.4565C82.9236 26.4349 78.8209 24.8633 78.7784 20.1382Z" fill="#2F4151"/>
<path d="M74.8445 8.52539C75.9336 7.20332 76.6714 5.36627 76.4708 3.53748C74.8991 3.60098 72.9967 4.58205 71.8683 5.90285C70.8574 7.07505 69.9735 8.94132 70.2103 10.7371C71.9635 10.873 73.7517 9.84492 74.8445 8.52539Z" fill="#2F4151"/>
<g clip-path="url(#clip0_129_595)">
<path d="M137.469 14.6005C137.469 13.378 136.482 12.3835 135.255 12.3835C134.028 12.3835 133.035 13.3735 133.035 14.6035V23.8885C133.035 25.1035 134.03 26.1085 135.26 26.1085C136.481 26.1085 137.474 25.1035 137.474 23.8885V14.5885H137.459L137.469 14.6005ZM112.34 12.808L112.346 27.208C112.346 28.5355 113.402 29.593 114.705 29.593H116.3V34.513C116.3 35.743 117.29 36.736 118.505 36.736C119.72 36.736 120.705 35.746 120.725 34.534V29.614H123.714V34.534C123.714 35.7685 124.704 36.7585 125.919 36.7585C127.154 36.7585 128.142 35.7685 128.142 34.5235V29.6035H129.759C131.064 29.6035 132.119 28.5385 132.119 27.2365V12.7915L112.275 12.805L112.335 12.808H112.34ZM126.812 8.41299C126.347 8.41299 125.972 8.03799 125.972 7.57299C125.972 7.11549 126.347 6.73599 126.812 6.73299C127.277 6.73299 127.652 7.11549 127.652 7.57299C127.652 8.03799 127.277 8.41299 126.812 8.41299ZM117.722 8.41299C117.257 8.41299 116.882 8.03799 116.882 7.57299C116.882 7.11249 117.257 6.73599 117.722 6.73599C118.187 6.73599 118.562 7.11849 118.562 7.59099C118.562 8.06349 118.184 8.44149 117.707 8.44149M127.142 4.09149L128.685 1.25499C128.775 1.09749 128.706 0.915992 128.571 0.827492C128.415 0.759992 128.235 0.804992 128.145 0.962492L126.57 3.81249C125.268 3.20499 123.786 2.86749 122.235 2.86749C120.684 2.86749 119.208 3.18999 117.897 3.77199L116.346 0.917492C116.267 0.770492 116.076 0.714992 115.929 0.797492C115.779 0.864992 115.725 1.06749 115.809 1.20249L117.354 4.01499C114.309 5.58549 112.254 8.57499 112.254 12.01H132.246C132.246 8.57499 130.194 5.58549 127.152 4.01499M109.245 12.373C108.02 12.373 107.025 13.3705 107.025 14.5975V23.8855C107.025 25.1155 108.021 26.1055 109.251 26.1055C110.472 26.1055 111.467 25.1155 111.467 23.8855V14.6005C111.467 13.378 110.477 12.3835 109.262 12.3835" fill="#2F4151"/>
</g>
<defs>
<clipPath id="clip0_129_595">
<rect width="36" height="36" fill="white" transform="translate(104.25 0.76001)"/>
</clipPath>
</defs>
</svg>
