<svg width="141" height="37" viewBox="0 0 141 37" fill="none" xmlns="http://www.w3.org/2000/svg">
<path d="M21.7501 27.76V30.76L24.7501 32.26V33.76H12.7501L12.7441 32.266L15.7501 30.76V27.76H5.23806C5.04109 27.7588 4.84629 27.7188 4.66482 27.6422C4.48335 27.5656 4.31878 27.4539 4.18055 27.3136C4.04231 27.1733 3.93313 27.0071 3.85926 26.8245C3.78539 26.6419 3.74828 26.4465 3.75006 26.2495V6.77051C3.75006 5.93651 4.43256 5.26001 5.23806 5.26001H32.2621C33.0841 5.26001 33.7501 5.93351 33.7501 6.77051V26.2495C33.7501 27.0835 33.0676 27.76 32.2621 27.76H21.7501ZM6.75006 21.76V24.76H30.7501V21.76H6.75006Z" fill="#45CEB3"/>
<path d="M16.1473 14.791C16.1319 14.7843 16.1144 14.7805 16.0965 14.7813C15.8833 14.7885 15.6554 14.8007 15.4459 14.7868C15.4109 14.7817 15.3972 14.78 15.3868 14.7594L15.3872 14.7657L15.3755 14.722C15.3459 14.645 15.3509 14.5402 15.3264 14.4506C15.318 14.417 15.2935 14.3669 15.2539 14.3492C15.2293 14.3345 15.1852 14.3307 15.1568 14.3425C15.1281 14.3538 15.1181 14.3652 15.1081 14.3745C15.064 14.4245 15.056 14.4897 15.0448 14.5419C15.0336 14.6084 15.0127 14.7498 15.0023 14.8166C15.0002 14.8293 14.9977 14.8448 14.9948 14.8625C14.9615 14.6425 14.9311 14.422 14.9103 14.202C14.8999 14.125 14.9015 14.0501 14.8457 13.9802C14.8361 13.9693 14.8195 13.9537 14.7936 13.9432C14.7512 13.923 14.6895 13.9386 14.6612 13.9638C14.5991 14.0164 14.5758 14.0888 14.5508 14.1612C14.5479 14.1662 14.5479 14.1679 14.5483 14.1687V14.17H14.5475C14.5475 14.17 14.5475 14.1712 14.5471 14.1717V14.1734C14.545 14.1801 14.5429 14.1881 14.5416 14.1948C14.5254 14.2861 14.5037 14.4296 14.4912 14.5226C14.4704 14.6404 14.4646 14.7674 14.4334 14.8747C14.4171 14.8516 14.4009 14.8276 14.3763 14.8053C14.3126 14.743 14.198 14.7493 14.1472 14.8255C14.1168 14.8705 14.1064 14.9122 14.1022 14.9559C14.0822 14.99 14.0747 15.0279 14.0664 15.064C14.0285 15.2378 14.0081 15.4208 13.9831 15.6005C13.8648 14.9744 13.7507 14.3442 13.6632 13.7139C13.6107 13.3559 13.5787 12.9987 13.5262 12.6398C13.5024 12.4959 13.4879 12.3617 13.4383 12.2174C13.4195 12.1614 13.3679 12.1 13.2954 12.1059C13.2367 12.1143 13.2184 12.1349 13.193 12.1703C13.1334 12.2923 13.1409 12.4345 13.128 12.5578C13.1047 13.1459 13.0068 13.7678 12.921 14.3766C12.8839 14.616 12.8435 14.8537 12.7931 15.0893L12.7585 14.9454L12.7535 14.9248C12.7115 14.8604 12.6486 14.7788 12.5573 14.7754C12.5344 14.7746 12.4986 14.7737 12.4657 14.7729C12.4528 14.6585 12.4382 14.4986 12.4257 14.3904C12.4174 14.3294 12.4116 14.2453 12.3537 14.1944C12.2941 14.1393 12.1946 14.1607 12.1562 14.2184C12.1196 14.2714 12.1212 14.3008 12.1067 14.353C12.0783 14.4847 12.05 14.621 12.0246 14.7514C12.0255 14.7481 12.0246 14.7535 12.0238 14.7552C12.0221 14.762 12.0192 14.7716 12.0163 14.7763C12.0155 14.7784 12.0146 14.7792 12.0142 14.78H12.0113C11.6906 14.7918 11.3715 14.8095 11.0529 14.857C11.0054 14.8659 11.0141 14.9281 11.0529 14.934C11.2457 14.9635 11.4386 14.9795 11.6314 14.9925C11.751 15.0001 11.8734 15.0056 11.993 15.0098C12.0321 15.0123 12.0725 15.0106 12.1104 14.9934C12.1691 14.9664 12.205 14.9252 12.2291 14.876C12.25 14.9387 12.2891 14.9984 12.3591 15.0148C12.3782 15.0199 12.3949 15.0203 12.4124 15.0199C12.4432 15.019 12.4945 15.0178 12.5319 15.0165C12.5349 15.0194 12.5382 15.0224 12.5415 15.0257C12.5523 15.0708 12.6373 15.4225 12.6465 15.4595C12.6365 15.5298 12.6252 15.6005 12.6252 15.6779C12.6257 15.6939 12.6282 15.7208 12.6431 15.7465C12.6761 15.8104 12.7702 15.823 12.8185 15.7789C12.8439 15.7582 12.8556 15.7313 12.866 15.7073C13.0043 15.287 13.0784 14.8457 13.1471 14.4115C13.2217 13.9184 13.2838 13.4257 13.3358 12.9301C13.3696 13.2023 13.3929 13.4775 13.4362 13.7455C13.5378 14.4616 13.6636 15.1705 13.8052 15.8794C13.8123 15.9392 13.8194 15.9926 13.8381 16.0586C13.8494 16.1016 13.8798 16.1659 13.9319 16.1857C14.1251 16.2501 14.1509 15.9779 14.1764 15.8529C14.218 15.6114 14.2368 15.3661 14.288 15.128C14.3013 15.1217 14.3121 15.1107 14.3184 15.0943C14.328 15.1036 14.3384 15.1124 14.3509 15.1217C14.4079 15.168 14.5158 15.1675 14.5716 15.1032C14.6695 14.9849 14.6695 14.8545 14.6941 14.7195C14.7003 14.6761 14.7095 14.6101 14.7187 14.5449C14.7207 14.5596 14.7224 14.5747 14.7245 14.5895C14.7595 14.849 14.7995 15.1061 14.842 15.3636C14.8574 15.4292 14.8682 15.4911 14.9511 15.5243C15.1269 15.5651 15.1502 15.3337 15.1727 15.2142C15.1727 15.2142 15.2018 15.0253 15.2181 14.9197C15.3164 15.0321 15.5101 15.0232 15.6563 15.0228C15.7629 15.0224 15.8687 15.0194 15.9745 15.0157C15.8912 15.2824 15.7745 15.5374 15.625 15.7734C15.5734 15.8432 15.5234 15.9236 15.4692 15.9905L15.3551 16.1272C15.3247 16.168 15.266 16.2173 15.2322 16.256C15.1514 16.3409 15.0577 16.4188 14.9677 16.4928C14.9407 16.5122 14.8136 16.6069 14.7891 16.6241C14.7353 16.6578 14.6545 16.7061 14.6008 16.7406C14.5237 16.7836 14.4433 16.8218 14.3646 16.8618C12.4174 17.7281 10.244 16.3094 10.2332 14.1574C10.2198 13.1851 10.7034 12.2376 11.4823 11.6608C11.4981 11.649 11.5027 11.6267 11.4919 11.6094C11.4806 11.5913 11.4573 11.5859 11.4394 11.5968C11.0158 11.8623 10.6568 12.2405 10.4098 12.6861C9.00777 15.2866 11.5535 18.1951 14.2913 17.1702C14.4325 17.1155 14.5958 17.0398 14.7262 16.9653C14.7849 16.9287 14.8724 16.8753 14.9311 16.8383C14.9573 16.8185 15.0956 16.7179 15.1248 16.6948C15.1993 16.6338 15.2706 16.5686 15.3422 16.5042C15.3759 16.4697 15.4422 16.3999 15.4759 16.3654C15.5788 16.256 15.6921 16.1117 15.7745 15.9867C15.9945 15.6695 16.1448 15.3051 16.2373 14.9307C16.2544 14.852 16.2044 14.8007 16.1469 14.7897L16.1473 14.791ZM12.0205 14.7813H12.018C12.02 14.7809 12.0225 14.7805 12.0221 14.7809C12.0213 14.7809 12.0242 14.7813 12.0205 14.7813ZM12.3657 14.3639V14.3631C12.3657 14.3631 12.3666 14.3618 12.3657 14.3639ZM12.5199 15.0093C12.5199 15.0093 12.5228 15.0106 12.5257 15.0131C12.5232 15.0119 12.5211 15.0106 12.5199 15.0093ZM14.0989 15.0257V15.0266C14.0989 15.0266 14.0989 15.0262 14.0989 15.0257ZM14.1451 15.1082C14.1555 15.1133 14.1668 15.1183 14.1784 15.1229C14.1664 15.12 14.1555 15.1149 14.1451 15.1082ZM14.3284 15.0047C14.3284 14.9984 14.3288 14.9921 14.3292 14.9862C14.3467 15.0001 14.3505 15.0098 14.3284 15.0047Z" fill="#2F4151"/>
<path d="M20.8927 13.1371C20.7227 12.9819 20.4945 12.9041 20.2088 12.9041C19.923 12.9041 19.6952 12.9819 19.5265 13.1371C19.3574 13.2924 19.2687 13.5158 19.2599 13.8065C19.2578 13.87 19.2566 13.9643 19.2566 14.0888C19.2566 14.2134 19.2578 14.3042 19.2599 14.3678C19.2687 14.6652 19.3553 14.8895 19.5198 15.0405C19.6844 15.1916 19.9143 15.2669 20.2088 15.2669C20.5032 15.2669 20.7332 15.1916 20.8977 15.0405C21.0622 14.8895 21.1501 14.6652 21.1609 14.3678C21.1651 14.2407 21.1676 14.1477 21.1676 14.0888C21.1676 14.0299 21.1655 13.9336 21.1609 13.8065C21.1522 13.5154 21.063 13.2924 20.8927 13.1371ZM20.6961 14.3514C20.6894 14.5331 20.6428 14.6682 20.5565 14.7569C20.4699 14.8457 20.3541 14.8899 20.2088 14.8899C20.0634 14.8899 19.9484 14.8457 19.8626 14.7569C19.7772 14.6682 19.731 14.5331 19.7243 14.3514C19.7223 14.2857 19.721 14.197 19.721 14.0855C19.721 13.974 19.7223 13.8831 19.7243 13.8196C19.731 13.6378 19.7772 13.5028 19.8639 13.4144C19.9505 13.3256 20.0655 13.2814 20.2083 13.2814C20.3512 13.2814 20.4695 13.3256 20.5561 13.4144C20.6428 13.5032 20.6894 13.6382 20.6957 13.8196C20.6998 13.9466 20.7023 14.035 20.7023 14.0855C20.7023 14.1313 20.7007 14.2201 20.6961 14.3514Z" fill="#2F4151"/>
<path d="M22.9253 14.2924C23.062 14.2444 23.1686 14.1662 23.2452 14.0576C23.3223 13.9491 23.3606 13.8153 23.3606 13.6554C23.3606 13.4257 23.2852 13.2486 23.1349 13.1236C22.9841 12.9987 22.7766 12.9364 22.5126 12.9364H21.6712C21.6475 12.9364 21.6283 12.944 21.6141 12.9595C21.6 12.9747 21.5929 12.9945 21.5929 13.0184V15.1553C21.5929 15.1772 21.6004 15.1957 21.6158 15.2113C21.6308 15.2264 21.6495 15.2344 21.6712 15.2344H21.9669C21.9907 15.2344 22.0098 15.2269 22.024 15.2113C22.0382 15.1961 22.0452 15.1772 22.0452 15.1553V14.3677H22.4967L22.9158 15.1457C22.9308 15.1743 22.9478 15.1961 22.9662 15.2113C22.9845 15.2264 23.0111 15.2344 23.0457 15.2344H23.3414C23.3589 15.2344 23.3743 15.2277 23.3885 15.2147C23.4027 15.2016 23.4098 15.1852 23.4098 15.1654C23.4098 15.1545 23.4064 15.1423 23.4002 15.1292L22.9258 14.2924H22.9253ZM22.7971 13.9083C22.7308 13.9672 22.6329 13.9971 22.503 13.9971H22.0448V13.3012H22.503C22.6329 13.3012 22.7308 13.3319 22.7971 13.3929C22.8633 13.4543 22.8962 13.5406 22.8962 13.6521C22.8962 13.7636 22.8633 13.849 22.7971 13.9079V13.9083Z" fill="#2F4151"/>
<path d="M28.8915 15.051L27.7857 14.488L27.9123 14.857H27.522V13.9104C27.522 13.9104 27.522 13.8519 27.457 13.8519H27.183C27.1038 13.8519 27.118 13.9045 27.118 13.9045V14.857H26.8852V13.631C26.8852 13.631 26.8852 13.5557 26.8202 13.5557H26.5461C26.467 13.5557 26.4811 13.6234 26.4811 13.6234V14.8566H26.2458V14.1308C26.2458 14.1308 26.2458 14.085 26.1808 14.085H25.9068C25.8276 14.085 25.8418 14.1262 25.8418 14.1262V14.8562H24.2182V14.2554H25.2158C25.2395 14.2554 25.2591 14.2482 25.2741 14.2339C25.2891 14.2196 25.297 14.2007 25.297 14.1763V13.9726C25.297 13.9486 25.2895 13.9293 25.2741 13.915C25.2591 13.9007 25.2395 13.8935 25.2158 13.8935H24.2182V13.3125H25.2874C25.3111 13.3125 25.3307 13.3054 25.3457 13.2911C25.3607 13.2767 25.3686 13.2578 25.3686 13.2334V13.0167C25.3686 12.9928 25.3611 12.973 25.3457 12.9578C25.3307 12.9427 25.3111 12.9347 25.2874 12.9347H23.8575C23.8337 12.9347 23.8146 12.9423 23.8004 12.9578C23.7863 12.973 23.7792 12.9928 23.7792 13.0167V15.1536C23.7792 15.1755 23.7867 15.194 23.8021 15.2096C23.8171 15.2247 23.8358 15.2327 23.8575 15.2327H27.8327L27.7203 15.4565L28.8911 15.0493L28.8915 15.051Z" fill="#2F4151"/>
<path d="M18.8052 12.96C18.7902 12.9449 18.7706 12.9369 18.7469 12.9369H18.4936C18.4503 12.9369 18.4178 12.9579 18.3962 12.9991L17.7626 14.1806L17.0937 12.9991C17.0741 12.9575 17.0416 12.9369 16.9962 12.9369H16.7813C16.7576 12.9369 16.738 12.9444 16.723 12.96C16.708 12.9752 16.7001 12.9949 16.7001 13.0189V15.1558C16.7001 15.1625 16.7009 15.1684 16.7018 15.1743C16.6972 15.29 16.6909 15.4495 16.6909 15.4495L16.6793 15.7175C16.6772 15.765 16.6497 15.8731 16.6368 15.9005C15.3073 18.7227 11.3782 18.9222 9.75339 16.2367C8.79664 14.6858 9.06821 12.5557 10.3836 11.3002C11.16 10.5408 12.2242 10.1407 13.2992 10.1012C13.3492 10.0982 13.3538 10.0254 13.303 10.017C11.7906 9.80076 10.2424 10.6771 9.48265 11.9961C7.75909 14.9303 10.0045 18.6049 13.3688 18.3921C14.8791 18.3104 16.3548 17.3318 17.0025 15.9577C17.0133 15.9346 17.035 15.8883 17.0437 15.7528C17.0525 15.6173 17.0908 13.7346 17.0908 13.7346L17.5873 14.611C17.6156 14.6589 17.6523 14.6833 17.6977 14.6833H17.831C17.8764 14.6833 17.9134 14.6593 17.9413 14.611L18.3962 13.7346V15.1558C18.3962 15.1777 18.4037 15.1962 18.4191 15.2118C18.4341 15.2269 18.4528 15.2349 18.4745 15.2349H18.7473C18.771 15.2349 18.7906 15.2277 18.8056 15.2134C18.8206 15.1991 18.8285 15.1802 18.8285 15.1558V13.0189C18.8285 12.9949 18.821 12.9752 18.8056 12.96H18.8052Z" fill="#2F4151"/>
<path d="M79.2784 20.1382C79.239 16.1809 82.5054 14.2829 82.6515 14.187C80.8157 11.5029 77.9557 11.1346 76.9378 11.0927C74.5057 10.8457 72.1899 12.5252 70.9561 12.5252C69.7248 12.5252 67.8185 11.1289 65.8018 11.1644C63.1488 11.2038 60.7034 12.7075 59.3381 15.0824C56.5829 19.862 58.6333 26.9454 61.3181 30.8246C62.6306 32.7207 64.1959 34.8543 66.2495 34.7762C68.2287 34.6981 68.9755 33.4961 71.3682 33.4961C73.7609 33.4961 74.4327 34.7762 76.5263 34.7362C78.6548 34.6975 80.0042 32.8039 81.3059 30.9002C82.8128 28.6974 83.4332 26.5644 83.47 26.4565C83.4236 26.4349 79.3209 24.8633 79.2784 20.1382Z" fill="#45CEB3"/>
<path d="M75.3445 8.52539C76.4336 7.20332 77.1714 5.36627 76.9708 3.53748C75.3991 3.60098 73.4967 4.58205 72.3683 5.90285C71.3574 7.07505 70.4735 8.94132 70.7103 10.7371C72.4635 10.873 74.2517 9.84492 75.3445 8.52539Z" fill="#45CEB3"/>
<g clip-path="url(#clip0_129_615)">
<path d="M137.969 14.6005C137.969 13.378 136.982 12.3835 135.755 12.3835C134.528 12.3835 133.535 13.3735 133.535 14.6035V23.8885C133.535 25.1035 134.53 26.1085 135.76 26.1085C136.981 26.1085 137.974 25.1035 137.974 23.8885V14.5885H137.959L137.969 14.6005ZM112.84 12.808L112.846 27.208C112.846 28.5355 113.902 29.593 115.205 29.593H116.8V34.513C116.8 35.743 117.79 36.736 119.005 36.736C120.22 36.736 121.205 35.746 121.225 34.534V29.614H124.214V34.534C124.214 35.7685 125.204 36.7585 126.419 36.7585C127.654 36.7585 128.642 35.7685 128.642 34.5235V29.6035H130.259C131.564 29.6035 132.619 28.5385 132.619 27.2365V12.7915L112.775 12.805L112.835 12.808H112.84ZM127.312 8.41299C126.847 8.41299 126.472 8.03799 126.472 7.57299C126.472 7.11549 126.847 6.73599 127.312 6.73299C127.777 6.73299 128.152 7.11549 128.152 7.57299C128.152 8.03799 127.777 8.41299 127.312 8.41299ZM118.222 8.41299C117.757 8.41299 117.382 8.03799 117.382 7.57299C117.382 7.11249 117.757 6.73599 118.222 6.73599C118.687 6.73599 119.062 7.11849 119.062 7.59099C119.062 8.06349 118.684 8.44149 118.207 8.44149M127.642 4.09149L129.185 1.25499C129.275 1.09749 129.206 0.915992 129.071 0.827492C128.915 0.759992 128.735 0.804992 128.645 0.962492L127.07 3.81249C125.768 3.20499 124.286 2.86749 122.735 2.86749C121.184 2.86749 119.708 3.18999 118.397 3.77199L116.846 0.917492C116.767 0.770492 116.576 0.714992 116.429 0.797492C116.279 0.864992 116.225 1.06749 116.309 1.20249L117.854 4.01499C114.809 5.58549 112.754 8.57499 112.754 12.01H132.746C132.746 8.57499 130.694 5.58549 127.652 4.01499M109.745 12.373C108.52 12.373 107.525 13.3705 107.525 14.5975V23.8855C107.525 25.1155 108.521 26.1055 109.751 26.1055C110.972 26.1055 111.967 25.1155 111.967 23.8855V14.6005C111.967 13.378 110.977 12.3835 109.762 12.3835" fill="#45CEB3"/>
</g>
<defs>
<clipPath id="clip0_129_615">
<rect width="36" height="36" fill="white" transform="translate(104.75 0.76001)"/>
</clipPath>
</defs>
</svg>
