<svg width="194" height="194" viewBox="0 0 243 243" fill="none" xmlns="http://www.w3.org/2000/svg">
<path d="M121.5 22.7812C66.9807 22.7812 22.7812 66.9807 22.7812 121.5C22.7812 168.114 55.1003 207.157 98.5479 217.508C96.3001 216.972 94.0714 216.373 91.8844 215.689V193.071C91.8844 193.071 88.1824 194.305 83.2465 194.305C69.4372 194.305 63.7002 181.984 62.2687 175.795C61.3993 172.025 59.1287 168.452 56.6911 166.269C53.7789 163.672 52.4159 163.664 52.3969 162.776C52.3589 160.912 54.8952 160.988 56.0988 160.988C62.2687 160.988 66.9465 167.552 69.1183 170.947C74.4985 179.326 80.2735 180.731 83.2465 180.731C86.9484 180.731 90.1454 180.177 92.3476 179.114C93.3652 171.945 96.5545 165.559 101.756 160.988C78.6067 156.359 62.2687 143.081 62.2687 121.5C62.2687 110.383 66.7301 100.165 74.1644 91.9148C73.405 89.7619 72.1406 85.4069 72.1406 78.3105C72.1406 73.6214 72.4672 67.8653 74.6086 62.2687C74.6086 62.2687 88.6874 62.3675 101.965 74.9427C108.093 73.1582 114.65 72.1406 121.5 72.1406C128.35 72.1406 134.907 73.1582 141.035 74.9427C154.313 62.3675 168.391 62.2687 168.391 62.2687C170.544 67.8653 170.859 73.6214 170.859 78.3105C170.859 85.9613 169.842 90.4226 169.219 92.3476C176.426 100.522 180.731 110.58 180.731 121.5C180.731 143.081 164.393 156.359 141.244 160.988C147.425 166.417 151.116 174.326 151.116 183.199V215.689C148.929 216.376 146.704 216.972 144.452 217.508C187.9 207.157 220.219 168.114 220.219 121.5C220.219 66.9807 176.019 22.7812 121.5 22.7812ZM128.384 219.953C126.109 220.112 123.816 220.219 121.5 220.219C123.816 220.219 126.106 220.109 128.384 219.953ZM121.5 220.219C119.184 220.219 116.891 220.112 114.616 219.953C116.894 220.109 119.184 220.219 121.5 220.219ZM113.101 219.839C108.481 219.448 103.947 218.742 99.5313 217.736C103.951 218.738 108.481 219.448 113.101 219.839Z" fill="black"/>
</svg>
