<svg width="88" height="117" viewBox="0 0 88 117" fill="none" xmlns="http://www.w3.org/2000/svg">
<path d="M65.7571 44.26C65.7571 56.1341 55.9073 65.76 43.7571 65.76C31.6068 65.76 21.7571 56.1341 21.7571 44.26C21.7571 32.3859 31.6068 22.76 43.7571 22.76C55.9073 22.76 65.7571 32.3859 65.7571 44.26Z" fill="#BEEEE5"/>
<path d="M44.1666 0.76001C20.0502 0.76001 0.75708 20.0532 0.75708 44.1696C0.75708 74.0739 17.1563 100.602 41.755 116.037C43.202 117.001 45.1313 117.001 47.0606 116.037C71.177 100.12 87.5762 74.0739 87.5762 44.1696C87.5762 20.0532 68.2831 0.76001 44.1666 0.76001ZM44.1666 63.4627C33.5554 63.4627 24.8735 54.7808 24.8735 44.1696C24.8735 33.5583 33.5554 24.8764 44.1666 24.8764C54.7779 24.8764 63.4598 33.5583 63.4598 44.1696C63.4598 54.7808 54.7779 63.4627 44.1666 63.4627Z" fill="#5A45CE"/>
</svg>
