<svg width="129" height="113" viewBox="0 0 129 113" fill="none" xmlns="http://www.w3.org/2000/svg">
<path d="M117.978 10.7476C111.531 4.30068 102.787 0.678864 93.6696 0.678864C84.5524 0.678864 75.8085 4.30068 69.3616 10.7476L64.5 15.6092L59.6385 10.7476C56.4463 7.55539 52.6566 5.02322 48.4858 3.29563C44.3151 1.56805 39.8448 0.678868 35.3304 0.678871C26.2132 0.678878 17.4693 4.30071 11.0224 10.7476C4.57554 17.1945 0.953729 25.9383 0.953735 35.0556C0.953742 44.1729 4.57557 52.9167 11.0225 59.3636L64.5 112.841L117.978 59.3636C124.425 52.9167 128.046 44.1729 128.046 35.0556C128.046 25.9383 124.425 17.1945 117.978 10.7476Z" fill="#FF5555"/>
<path d="M15.9755 49.6778H69.6373C70.1607 49.6778 70.5956 49.2741 70.6345 48.7521L71.808 32.9979C71.8852 31.9612 73.2967 31.7161 73.719 32.666L84.3846 56.6591C84.7731 57.533 86.0491 57.4153 86.2711 56.485L87.7125 50.4457C87.8199 49.9955 88.2223 49.6778 88.6851 49.6778H113.313" stroke="#BEEEE5" stroke-width="3" stroke-linecap="round"/>
</svg>
