<svg width="161" height="44" viewBox="0 0 161 44" fill="none" xmlns="http://www.w3.org/2000/svg">
<g clip-path="url(#clip0_129_466)">
<path d="M42.35 36.91H52.45V33.91H46.15V23.61H42.35V36.91ZM55.65 25.51C56.75 25.61 57.75 24.81 57.85 23.71C57.85 23.61 57.85 23.61 57.85 23.51C57.85 22.41 56.85 21.61 55.85 21.61C55.75 21.61 55.75 21.61 55.65 21.61C54.55 21.51 53.55 22.31 53.45 23.41V23.51C53.45 24.61 54.45 25.51 55.55 25.41C55.55 25.51 55.55 25.51 55.65 25.51ZM53.75 36.91H57.35V26.61H53.75V36.91ZM73.15 26.41C71.75 26.41 70.45 27.01 69.55 28.01C68.75 26.91 67.55 26.31 66.25 26.41C65.05 26.41 63.95 26.81 63.15 27.71V26.61H59.75V36.91H63.35V31.81C63.35 30.21 64.15 29.51 65.15 29.51C66.15 29.51 66.75 30.11 66.75 31.61V36.91H70.35V31.81C70.35 30.21 71.15 29.51 72.15 29.51C73.05 29.51 73.75 30.11 73.75 31.61V36.91H77.35V31.01C77.35 27.81 75.55 26.41 73.15 26.41ZM90.25 31.81C90.35 29.01 88.15 26.61 85.25 26.51C85.05 26.51 84.85 26.51 84.75 26.51C81.55 26.51 79.05 28.71 79.05 31.81C79.05 34.91 81.45 37.11 85.05 37.11C86.65 37.21 88.25 36.61 89.45 35.41L87.55 33.41C86.95 34.01 86.05 34.31 85.15 34.31C84.05 34.41 82.95 33.71 82.65 32.61H90.15C90.25 32.41 90.25 32.01 90.25 31.81ZM84.75 29.01C85.85 29.01 86.75 29.71 86.85 30.81H82.65C82.85 29.71 83.75 29.01 84.75 29.01ZM96.75 37.21C100.75 37.21 102.65 35.21 102.65 32.91C102.65 28.01 95.15 29.51 95.15 27.51C95.15 26.81 95.75 26.31 97.25 26.31C98.55 26.31 99.85 26.71 100.95 27.31L102.15 24.51C100.65 23.71 99.05 23.31 97.35 23.31C93.35 23.31 91.45 25.21 91.45 27.61C91.45 32.51 99.05 31.01 99.05 33.11C99.05 33.71 98.45 34.21 96.85 34.21C95.25 34.21 93.75 33.71 92.45 32.91L91.25 35.71C92.85 36.71 94.85 37.21 96.75 37.21ZM111.45 26.61V31.61C111.45 33.31 110.55 34.01 109.55 34.01C108.45 34.01 107.85 33.41 107.85 31.81V26.61H104.25V32.41C104.25 35.71 106.05 37.11 108.65 37.11C109.85 37.11 110.95 36.71 111.75 35.81V36.91H115.15V26.61H111.45ZM120.85 27.81V26.61H117.45V36.91H121.05V32.21C120.85 31.01 121.75 29.81 122.95 29.71C123.15 29.71 123.35 29.71 123.55 29.71C123.85 29.71 124.05 29.71 124.35 29.81V26.61C122.95 26.31 121.75 26.91 120.85 27.81ZM133.55 26.61L130.95 32.91L128.45 26.61H124.75L128.95 36.91H132.65L136.95 26.61H133.55ZM148.15 31.81C148.25 29.01 146.05 26.61 143.15 26.51C142.95 26.51 142.75 26.51 142.65 26.51C139.45 26.51 136.95 28.71 136.95 31.81C136.95 34.91 139.35 37.11 142.95 37.11C144.55 37.21 146.15 36.61 147.35 35.41L145.45 33.41C144.85 34.01 143.95 34.31 143.05 34.31C141.95 34.41 140.85 33.71 140.55 32.61H148.05C148.05 32.41 148.15 32.01 148.15 31.81ZM142.65 29.01C143.75 29.01 144.65 29.71 144.75 30.81H140.55C140.65 29.71 141.55 29.01 142.65 29.01ZM157.05 26.61L154.55 32.91L152.05 26.61H148.35L152.75 37.01C152.55 37.61 151.95 37.91 151.35 37.91C150.75 37.91 150.15 37.71 149.75 37.31L148.45 39.81C149.35 40.41 150.35 40.71 151.45 40.71C153.45 40.71 155.05 39.91 156.05 37.31L160.55 26.61H157.05Z" fill="#14AE5C"/>
<path d="M5.95001 4.71001C7.25001 4.71001 8.55001 5.01001 9.85001 5.41001C11.05 5.81001 12.25 6.41001 13.45 7.01001C14.55 7.61001 15.65 8.31001 16.75 9.11001C17.25 9.51001 17.75 9.91001 18.25 10.31C18.55 10.51 18.75 10.71 18.95 10.91C19.05 11.01 19.15 11.11 19.35 11.21L19.55 11.51L19.75 11.71H16.15L16.45 11.31L16.75 11.01C16.95 10.81 17.15 10.61 17.35 10.41C17.75 9.91001 18.15 9.51001 18.55 9.11001C18.95 8.71001 19.45 8.31001 19.85 8.01001C20.05 7.81001 20.35 7.61001 20.55 7.51001L20.85 7.21001L21.15 6.91001C22.05 6.21001 23.05 5.61001 24.05 5.01001C25.05 4.41001 26.05 3.91001 27.15 3.41001C29.25 2.41001 31.45 1.71001 33.65 1.21001C34.75 1.01001 35.95 0.810012 37.05 0.710012C38.25 0.510012 39.45 0.510012 40.55 0.610012C40.05 0.910012 39.55 1.21001 39.05 1.51001C38.85 1.61001 38.55 1.81001 38.35 1.91001C38.25 2.01001 38.15 2.01001 37.95 2.11001L37.55 2.31001C36.65 2.91001 35.65 3.41001 34.75 4.01001C33.05 5.21001 31.35 6.31001 29.55 7.51001C27.75 8.71001 26.15 9.91001 24.45 11.11C24.05 11.41 23.65 11.71 23.25 12.01C22.85 12.31 22.45 12.61 22.05 13.01C21.65 13.41 21.25 13.71 20.85 14.01C20.65 14.21 20.45 14.31 20.25 14.51L19.75 15.01L17.55 16.91L16.15 15.01L16.05 14.91L15.95 14.71L15.55 14.41L14.95 13.71C14.55 13.21 14.15 12.81 13.75 12.41C12.95 11.51 12.15 10.61 11.35 9.71001C10.55 8.81001 9.75001 7.91001 8.85001 7.11001C7.95001 6.21001 6.95001 5.41001 5.95001 4.71001Z" fill="#14AE5C"/>
<path d="M18.05 37.119C14.05 37.119 10.35 34.819 8.55 31.219L2.25 33.919C6.15 42.219 15.85 46.119 24.45 42.819L21.75 36.519C20.55 36.919 19.35 37.119 18.05 37.119Z" fill="#14AE5C"/>
<path d="M7.44998 26.419C7.44998 22.719 9.44998 19.219 12.55 17.319L8.14998 12.019C1.54998 16.519 -1.15002 25.019 1.64998 32.519L8.04998 29.819C7.64998 28.719 7.44998 27.519 7.44998 26.419Z" fill="#14AE5C"/>
<path d="M28.65 12.419L22.65 16.819C24.65 17.819 26.35 19.419 27.35 21.319L33.65 18.619C32.55 16.219 30.85 14.119 28.65 12.419Z" fill="#14AE5C"/>
<path d="M35.65 26.419C35.65 24.219 35.25 22.019 34.45 20.019L28.15 22.719C29.95 27.719 27.85 33.319 23.15 35.819L25.85 42.119C31.85 39.219 35.65 33.119 35.65 26.419Z" fill="#14AE5C"/>
</g>
<defs>
<clipPath id="clip0_129_466">
<rect width="159.9" height="43.5" fill="white" transform="translate(0.549988 0.51001)"/>
</clipPath>
</defs>
</svg>
