<svg width="80" height="86" viewBox="0 0 80 86" fill="none" xmlns="http://www.w3.org/2000/svg">
<path d="M13.3333 34.3188V25.7391C13.3333 18.9127 16.1429 12.3658 21.1438 7.53882C26.1448 2.71179 32.9276 0 40 0C47.0724 0 53.8552 2.71179 58.8562 7.53882C63.8571 12.3658 66.6667 18.9127 66.6667 25.7391V34.3188H71.1111C73.4686 34.3188 75.7295 35.2228 77.3965 36.8318C79.0635 38.4408 80 40.6231 80 42.8986V77.2174C80 79.4929 79.0635 81.6752 77.3965 83.2842C75.7295 84.8932 73.4686 85.7971 71.1111 85.7971H8.88889C6.53141 85.7971 4.27049 84.8932 2.6035 83.2842C0.936505 81.6752 0 79.4929 0 77.2174V42.8986C0 38.1797 4 34.3188 8.88889 34.3188H13.3333ZM35.5556 63.1896V72.9275H44.4444V63.1896C46.139 62.2452 47.4635 60.7876 48.2123 59.0426C48.9611 57.2977 49.0924 55.3631 48.586 53.5387C48.0796 51.7144 46.9636 50.1023 45.4112 48.9526C43.8588 47.8028 41.9567 47.1796 40 47.1796C38.0433 47.1796 36.1412 47.8028 34.5888 48.9526C33.0364 50.1023 31.9204 51.7144 31.414 53.5387C30.9075 55.3631 31.0389 57.2977 31.7877 59.0426C32.5365 60.7876 33.861 62.2452 35.5556 63.1896ZM26.6667 25.7391V34.3188H53.3333V25.7391C53.3333 22.3259 51.9286 19.0525 49.4281 16.639C46.9276 14.2255 43.5362 12.8696 40 12.8696C36.4638 12.8696 33.0724 14.2255 30.5719 16.639C28.0714 19.0525 26.6667 22.3259 26.6667 25.7391Z" fill="#1C2731"/>
</svg>
