<svg width="97" height="83" viewBox="0 0 97 83" fill="none" xmlns="http://www.w3.org/2000/svg">
<rect y="49.8466" width="34.7221" height="32.6923" rx="6" fill="#45CEB3"/>
<rect x="39.2596" y="49.8467" width="35.2351" height="32.6923" rx="6" fill="#45CEB3"/>
<rect width="33.7105" height="33.8086" rx="6" transform="matrix(0.724004 -0.689795 0.724004 0.689795 48 24.2343)" fill="#96E3D4"/>
<path d="M73.9742 19.3735C73.9742 18.7443 73.4641 18.2343 72.835 18.2343C72.2059 18.2343 71.6958 18.7443 71.6958 19.3735V23.9301L67.1392 23.9301C66.51 23.9301 66 24.4402 66 25.0693C66 25.6984 66.51 26.2085 67.1392 26.2085H71.6958V30.7651C71.6958 31.3943 72.2059 31.9043 72.835 31.9043C73.4641 31.9043 73.9742 31.3943 73.9742 30.7651V26.2085L78.5308 26.2085C79.16 26.2085 79.67 25.6984 79.67 25.0693C79.67 24.4402 79.16 23.9301 78.5308 23.9301L73.9742 23.9301V19.3735Z" fill="#415B71"/>
<rect y="13.1645" width="34.7221" height="32.6923" rx="6" fill="#45CEB3"/>
</svg>
