<?xml version="1.0" encoding="UTF-8"?><svg id="Liniengrafik" xmlns="http://www.w3.org/2000/svg" viewBox="0 0 564.7 298.16"><defs><style>.cls-1{fill:#fff;}</style></defs><path class="cls-1" d="M219.08,165.84c-.37-.16-.79-.25-1.22-.23-5.12,.17-10.59,.46-15.62,.13-.84-.12-1.17-.16-1.42-.65,0,0,.01,.15,.01,.15l-.28-1.04c-.71-1.83-.59-4.32-1.18-6.45-.2-.8-.79-1.99-1.74-2.41-.59-.35-1.65-.44-2.33-.16-.69,.27-.93,.54-1.17,.76-1.06,1.19-1.25,2.74-1.52,3.98-.27,1.58-.77,4.94-1.02,6.53-.05,.3-.11,.67-.18,1.09-.8-5.23-1.53-10.47-2.03-15.7-.25-1.83-.21-3.61-1.55-5.27-.23-.26-.63-.63-1.25-.88-1.02-.48-2.5-.11-3.18,.49-1.49,1.25-2.05,2.97-2.65,4.69-.07,.12-.07,.16-.06,.18v.03h-.02s0,.03-.01,.04v.04h0c-.05,.16-.1,.35-.13,.51-.39,2.17-.91,5.58-1.21,7.79-.5,2.8-.64,5.82-1.39,8.37-.39-.55-.78-1.12-1.37-1.65-1.53-1.48-4.28-1.33-5.5,.48-.73,1.07-.98,2.06-1.08,3.1-.48,.81-.66,1.71-.86,2.57-.91,4.13-1.4,8.48-2,12.75-2.84-14.88-5.58-29.86-7.68-44.84-1.26-8.51-2.03-17-3.29-25.53-.57-3.42-.92-6.61-2.11-10.04-.45-1.33-1.69-2.79-3.43-2.65-1.41,.2-1.85,.69-2.46,1.53-1.43,2.9-1.25,6.28-1.56,9.21-.56,13.98-2.91,28.76-4.97,43.23-.89,5.69-1.86,11.34-3.07,16.94l-.83-3.42-.12-.49c-1.01-1.53-2.52-3.47-4.71-3.55-.55-.02-1.41-.04-2.2-.06-.31-2.72-.66-6.52-.96-9.09-.2-1.45-.34-3.45-1.73-4.66-1.43-1.31-3.82-.8-4.74,.57-.88,1.26-.84,1.96-1.19,3.2-.68,3.13-1.36,6.37-1.97,9.47,.02-.08,0,.05-.02,.09-.04,.16-.11,.39-.18,.5-.02,.05-.04,.07-.05,.09h-.07c-7.7,.28-15.36,.7-23.01,1.83-1.14,.21-.93,1.69,0,1.83,4.63,.7,9.26,1.08,13.89,1.39,2.87,.18,5.81,.31,8.68,.41,.94,.06,1.91,.02,2.82-.39,1.41-.64,2.27-1.62,2.85-2.79,.5,1.49,1.44,2.91,3.12,3.3,.46,.12,.86,.13,1.28,.12,.74-.02,1.97-.05,2.87-.08,.07,.07,.15,.14,.23,.22,.26,1.07,2.3,9.43,2.52,10.31-.24,1.67-.51,3.35-.51,5.19,.01,.38,.07,1.02,.43,1.63,.79,1.52,3.05,1.82,4.21,.77,.61-.49,.89-1.13,1.14-1.7,3.32-9.99,5.1-20.48,6.75-30.8,1.79-11.72,3.28-23.43,4.53-35.21,.81,6.47,1.37,13.01,2.41,19.38,2.44,17.02,5.46,33.87,8.86,50.72,.17,1.42,.34,2.69,.79,4.26,.27,1.02,1,2.55,2.25,3.02,4.64,1.53,5.26-4.94,5.87-7.91,1-5.74,1.45-11.57,2.68-17.23,.32-.15,.58-.41,.73-.8,.23,.22,.48,.43,.78,.65,1.37,1.1,3.96,1.09,5.3-.44,2.35-2.81,2.35-5.91,2.94-9.12,.15-1.03,.37-2.6,.59-4.15,.05,.35,.09,.71,.14,1.06,.84,6.17,1.8,12.28,2.82,18.4,.37,1.56,.63,3.03,2.62,3.82,4.22,.97,4.78-4.53,5.32-7.37,0,0,.7-4.49,1.09-7,2.36,2.67,7.01,2.46,10.52,2.45,2.56-.01,5.1-.08,7.64-.17-2,6.34-4.8,12.4-8.39,18.01-1.24,1.66-2.44,3.57-3.74,5.16l-2.74,3.25c-.73,.97-2.14,2.14-2.95,3.06-1.94,2.02-4.19,3.87-6.35,5.63-.65,.46-3.7,2.71-4.29,3.12-1.29,.8-3.23,1.95-4.52,2.77-1.85,1.02-3.78,1.93-5.67,2.88-46.75,20.59-98.93-13.13-99.19-64.28-.32-23.11,11.29-45.63,29.99-59.34,.38-.28,.49-.81,.23-1.22-.27-.43-.83-.56-1.26-.3-10.17,6.31-18.79,15.3-24.72,25.89-33.66,61.81,27.46,130.94,93.19,106.58,3.39-1.3,7.31-3.1,10.44-4.87,1.41-.87,3.51-2.14,4.92-3.02,.63-.47,3.95-2.86,4.65-3.41,1.79-1.45,3.5-3,5.22-4.53,.81-.82,2.4-2.48,3.21-3.3,2.47-2.6,5.19-6.03,7.17-9,5.28-7.54,8.89-16.2,11.11-25.1,.41-1.87-.79-3.09-2.17-3.35Zm-99.08-.23h-.06c.05-.01,.11-.02,.1-.01-.02,0,.05,.01-.04,.01Zm8.29-9.92v-.02s.02-.03,0,.02Zm3.7,15.34s.07,.03,.14,.09c-.06-.03-.11-.06-.14-.09Zm37.91,.39v.02s0-.01,0-.02Zm1.11,1.96c.25,.12,.52,.24,.8,.35-.29-.07-.55-.19-.8-.35Zm4.4-2.46c0-.15,.01-.3,.02-.44,.42,.33,.51,.56-.02,.44Z"/><path class="cls-1" d="M333.01,126.53c-4.08-3.69-9.56-5.54-16.42-5.54s-12.33,1.85-16.38,5.54c-4.06,3.69-6.19,9-6.4,15.91-.05,1.51-.08,3.75-.08,6.71s.03,5.12,.08,6.63c.21,7.07,2.29,12.4,6.24,15.99,3.95,3.59,9.47,5.38,16.54,5.38s12.59-1.79,16.54-5.38c3.95-3.59,6.06-8.92,6.32-15.99,.1-3.02,.16-5.23,.16-6.63s-.05-3.69-.16-6.71c-.21-6.92-2.35-12.22-6.44-15.91Zm-4.72,28.86c-.16,4.32-1.28,7.53-3.35,9.64-2.08,2.11-4.86,3.16-8.35,3.16s-6.25-1.05-8.31-3.16c-2.05-2.11-3.16-5.32-3.32-9.64-.05-1.56-.08-3.67-.08-6.32s.03-4.81,.08-6.32c.16-4.32,1.27-7.53,3.35-9.63,2.08-2.11,4.84-3.16,8.27-3.16s6.27,1.05,8.35,3.16c2.08,2.11,3.2,5.32,3.35,9.63,.1,3.02,.16,5.12,.16,6.32,0,1.09-.05,3.2-.16,6.32Z"/><path class="cls-1" d="M381.81,153.99c3.28-1.14,5.84-3,7.68-5.58,1.85-2.58,2.77-5.76,2.77-9.56,0-5.46-1.81-9.67-5.42-12.64-3.62-2.97-8.6-4.45-14.94-4.45h-20.2c-.57,0-1.03,.18-1.37,.55-.34,.36-.51,.83-.51,1.4v50.79c0,.52,.18,.96,.55,1.33,.36,.36,.81,.55,1.33,.55h7.1c.57,0,1.03-.18,1.37-.55,.34-.36,.51-.81,.51-1.33v-18.72h10.84l10.06,18.49c.36,.68,.77,1.2,1.21,1.56,.44,.36,1.08,.55,1.91,.55h7.1c.42,0,.79-.16,1.13-.47,.34-.31,.51-.7,.51-1.17,0-.26-.08-.55-.23-.86l-11.39-19.89Zm-3.08-9.13c-1.59,1.4-3.94,2.11-7.06,2.11h-11v-16.54h11c3.12,0,5.47,.73,7.06,2.18,1.59,1.46,2.38,3.51,2.38,6.16s-.79,4.68-2.38,6.08Z"/><path class="cls-1" d="M525.05,172.02l-26.55-13.38,3.04,8.77h-9.37v-22.5s0-1.39-1.56-1.39h-6.58c-1.9,0-1.56,1.25-1.56,1.25v22.64h-5.59v-29.14s0-1.79-1.56-1.79h-6.58c-1.9,0-1.56,1.61-1.56,1.61v29.31h-5.65v-17.25s0-1.09-1.56-1.09h-6.58c-1.9,0-1.56,.98-1.56,.98v17.35h-38.98v-14.28h23.95c.57,0,1.04-.17,1.4-.51,.36-.34,.55-.79,.55-1.37v-4.84c0-.57-.18-1.03-.55-1.37-.36-.34-.83-.51-1.4-.51h-23.95v-13.81h25.67c.57,0,1.04-.17,1.4-.51,.36-.34,.55-.79,.55-1.37v-5.15c0-.57-.18-1.04-.55-1.4-.36-.36-.83-.55-1.4-.55h-34.33c-.57,0-1.03,.18-1.37,.55-.34,.36-.51,.83-.51,1.4v50.79c0,.52,.18,.96,.55,1.33,.36,.36,.81,.55,1.33,.55h95.44l-2.7,5.32,28.11-9.68Z"/><path class="cls-1" d="M282.89,122.32c-.36-.36-.83-.55-1.4-.55h-6.08c-1.04,0-1.82,.5-2.34,1.48l-15.21,28.08-16.06-28.08c-.47-.99-1.25-1.48-2.34-1.48h-5.16c-.57,0-1.04,.18-1.4,.55-.36,.36-.55,.83-.55,1.4v50.79c0,.16,.02,.3,.04,.44-.11,2.75-.26,6.54-.26,6.54l-.28,6.37c-.05,1.13-.71,3.7-1.02,4.35-31.92,67.08-126.25,71.82-165.26,7.99-22.97-36.86-16.45-87.49,15.13-117.33,18.64-18.05,44.19-27.56,70-28.5,1.2-.07,1.31-1.8,.09-2-36.31-5.14-73.48,15.69-91.72,47.04-41.38,69.74,12.53,157.08,93.3,152.02,36.26-1.94,71.69-25.2,87.24-57.86,.26-.55,.78-1.65,.99-4.87,.21-3.22,1.13-47.97,1.13-47.97l11.92,20.83c.68,1.14,1.56,1.72,2.65,1.72h3.2c1.09,0,1.98-.57,2.65-1.72l10.92-20.83v33.78c0,.52,.18,.96,.55,1.33,.36,.36,.81,.55,1.33,.55h6.55c.57,0,1.04-.17,1.4-.51,.36-.34,.55-.79,.55-1.37v-50.79c0-.57-.18-1.04-.55-1.4Z"/></svg>