<svg width="154" height="155" viewBox="0 0 154 155" fill="none" xmlns="http://www.w3.org/2000/svg">
<path d="M77.1198 154.03C119.408 154.03 153.69 119.748 153.69 77.46C153.69 35.1716 119.408 0.890015 77.1198 0.890015C34.8314 0.890015 0.549805 35.1716 0.549805 77.46C0.549805 119.748 34.8314 154.03 77.1198 154.03Z" fill="#6D8EAB"/>
<path d="M132.79 87.7801C132.5 87.6601 132.19 87.5901 131.86 87.6001C127.95 87.7301 123.78 87.9501 119.94 87.7001C119.3 87.6101 119.05 87.5801 118.86 87.2101C118.86 87.2101 118.87 87.3201 118.87 87.3301L118.66 86.5301C118.12 85.1401 118.21 83.2301 117.76 81.6101C117.61 81.0001 117.15 80.0901 116.43 79.7701C115.98 79.5001 115.17 79.4301 114.65 79.6501C114.12 79.8501 113.94 80.0601 113.76 80.2301C112.95 81.1401 112.8 82.3201 112.6 83.2601C112.39 84.4601 112.01 87.0301 111.82 88.2401C111.78 88.4701 111.74 88.7501 111.69 89.0701C111.08 85.0801 110.52 81.0801 110.14 77.0901C109.95 75.6901 109.98 74.3301 108.96 73.0701C108.78 72.8701 108.48 72.5901 108 72.4001C107.22 72.0401 106.1 72.3201 105.57 72.7701C104.43 73.7301 104.01 75.0401 103.54 76.3501C103.49 76.4401 103.49 76.4801 103.49 76.4901V76.5201H103.48V76.5501L103.46 76.5801C103.42 76.7001 103.38 76.8401 103.36 76.9701C103.06 78.6301 102.67 81.2201 102.44 82.9101C102.06 85.0401 101.95 87.3501 101.38 89.3001C101.08 88.8801 100.78 88.4401 100.33 88.0401C99.1599 86.9101 97.0699 87.0301 96.1299 88.4101C95.5699 89.2301 95.3799 89.9801 95.3099 90.7801C94.9499 91.4001 94.8099 92.0901 94.6499 92.7401C93.9599 95.8901 93.5799 99.2101 93.1299 102.47C90.9699 91.1201 88.8699 79.6901 87.2699 68.2601C86.3099 61.7701 85.7199 55.2901 84.7599 48.7801C84.3299 46.1701 84.0599 43.7301 83.1499 41.1201C82.7999 40.1001 81.8599 38.9901 80.5299 39.1001C79.4499 39.2501 79.1199 39.6201 78.6599 40.2701C77.5699 42.4801 77.7099 45.0601 77.4699 47.3001C77.0399 57.9701 75.2499 69.2401 73.6799 80.2901C72.9999 84.6301 72.2599 88.9501 71.3399 93.2101L70.6999 90.6001L70.6099 90.2301C69.8399 89.0601 68.6899 87.5801 67.0099 87.5201C66.5899 87.5001 65.9299 87.4901 65.3299 87.4701C65.0899 85.4001 64.8199 82.4901 64.5999 80.5301C64.4399 79.4201 64.3399 77.9001 63.2799 76.9701C62.1899 75.9701 60.3599 76.3601 59.6599 77.4101C58.9899 78.3701 59.0199 78.9101 58.7499 79.8501C58.2299 82.2401 57.7099 84.7101 57.2499 87.0801C57.2599 87.0201 57.2499 87.1201 57.2399 87.1501C57.2099 87.2701 57.1599 87.4501 57.1099 87.5301C57.0899 87.5701 57.0799 87.5901 57.0699 87.6001H57.0099C51.1299 87.8201 45.2899 88.1301 39.4499 88.9901C38.5799 89.1501 38.7399 90.2801 39.4499 90.3901C42.9799 90.9301 46.5199 91.2101 50.0499 91.4501C52.2399 91.5901 54.4899 91.6901 56.6799 91.7601C57.3999 91.8101 58.1399 91.7701 58.8399 91.4601C59.9199 90.9701 60.5699 90.2301 61.0199 89.3301C61.3999 90.4701 62.1199 91.5501 63.3999 91.8501C63.7499 91.9401 64.0599 91.9501 64.3699 91.9401C64.9399 91.9201 65.8699 91.9001 66.5599 91.8801C66.6199 91.9301 66.6699 91.9901 66.7299 92.0501C66.9299 92.8701 68.4799 99.2501 68.6499 99.9201C68.4699 101.2 68.2599 102.47 68.2599 103.88C68.2699 104.17 68.3199 104.66 68.5899 105.13C69.1899 106.29 70.9199 106.52 71.7999 105.72C72.2699 105.34 72.4799 104.86 72.6699 104.42C75.1999 96.8001 76.5599 88.7901 77.8199 80.9101C79.1899 71.9701 80.3199 63.0301 81.2799 54.0501C81.8899 58.9901 82.3299 63.9801 83.1199 68.8301C84.9799 81.8101 87.2899 94.6701 89.8799 107.53C90.0099 108.61 90.1399 109.58 90.4799 110.78C90.6899 111.56 91.2399 112.73 92.1999 113.08C95.7399 114.25 96.2099 109.31 96.6799 107.05C97.4399 102.67 97.7799 98.2301 98.7299 93.9001C98.9699 93.7901 99.1699 93.5901 99.2899 93.2901C99.4699 93.4501 99.6599 93.6201 99.8799 93.7801C100.93 94.6201 102.9 94.6101 103.93 93.4401C105.73 91.2901 105.73 88.9301 106.17 86.4801C106.28 85.6901 106.45 84.4901 106.62 83.3101C106.66 83.5801 106.69 83.8501 106.73 84.1201C107.37 88.8201 108.1 93.4901 108.88 98.1601C109.17 99.3501 109.36 100.48 110.88 101.08C114.1 101.82 114.53 97.6201 114.94 95.4601C114.94 95.4601 115.47 92.0301 115.77 90.1201C117.57 92.1601 121.12 92.0001 123.8 91.9901C125.76 91.9901 127.69 91.9301 129.63 91.8601C128.1 96.7001 125.96 101.32 123.23 105.6C122.29 106.86 121.37 108.32 120.37 109.54L118.28 112.02C117.72 112.76 116.65 113.66 116.03 114.35C114.55 115.89 112.83 117.3 111.19 118.64C110.69 118.99 108.37 120.71 107.92 121.02C106.93 121.63 105.46 122.51 104.47 123.13C103.06 123.91 101.59 124.6 100.14 125.33C64.4599 141.04 24.6599 115.31 24.4499 76.2801C24.2099 58.6401 33.0699 41.4601 47.3299 31.0001C47.6199 30.7901 47.6999 30.3801 47.5099 30.0701C47.3099 29.7401 46.8699 29.6401 46.5499 29.8401C38.7899 34.6501 32.2099 41.5101 27.6899 49.6001C2.00991 96.7601 48.6399 149.51 98.7999 130.92C101.39 129.93 104.38 128.55 106.77 127.2C107.85 126.53 109.45 125.57 110.52 124.9C111 124.54 113.54 122.71 114.07 122.3C115.43 121.19 116.74 120.01 118.06 118.84C118.68 118.22 119.89 116.94 120.51 116.32C122.39 114.34 124.47 111.72 125.98 109.46C130.01 103.71 132.76 97.1001 134.46 90.3101C134.77 88.8801 133.86 87.9501 132.8 87.7601L132.79 87.7801ZM57.1899 87.6001H57.1399L57.2199 87.5901C57.2099 87.5901 57.2599 87.5901 57.1899 87.6001ZM66.3499 91.7301C66.3499 91.7301 66.4099 91.7601 66.4599 91.8001C66.4199 91.7801 66.3799 91.7601 66.3499 91.7301ZM95.2799 92.0201V92.0401C95.2799 92.0401 95.2799 92.0401 95.2799 92.0201ZM96.1199 93.5201C96.3099 93.6201 96.5199 93.7001 96.7299 93.7801C96.5099 93.7301 96.3099 93.6301 96.1199 93.5201ZM99.4799 91.6401C99.4799 91.5301 99.4799 91.4101 99.4999 91.3001C99.8199 91.5501 99.8899 91.7201 99.4799 91.6401Z" fill="white"/>
<path d="M80.8398 9.28004C27.2598 10.85 -6.51021 64.67 21.0498 111.9C31.5098 129.27 50.3098 141.21 70.4798 143.4C86.1998 145.14 102.44 141.11 115.52 132.19C125.55 125.45 133.8 116.13 139.65 105.28C139.83 104.94 140.26 104.81 140.61 104.99C140.92 105.16 141.06 105.53 140.94 105.86C136.54 117.68 128.29 128.14 117.85 135.55C99.5398 148.65 74.7398 151.99 53.5498 144.4C-4.60021 123.4 -10.5302 44.09 43.8498 14.7C55.1298 8.77005 68.2998 6.12004 80.9098 7.87004C81.2998 7.92004 81.5698 8.28004 81.5098 8.67004C81.4598 9.01004 81.1698 9.26004 80.8398 9.28004Z" fill="white"/>
</svg>
