<svg width="44" height="45" viewBox="0 0 44 45" fill="none" xmlns="http://www.w3.org/2000/svg">
<rect y="0.666626" width="44" height="44" rx="22" fill="#45CEB3"/>
<path d="M15.2639 27.8611C15.4692 27.3221 15.9311 26.9555 16.4598 26.8409V26.839L18.4366 26.394C18.4469 26.4587 18.4643 26.521 18.4785 26.5844C18.7269 26.5332 19.0664 26.4423 19.3034 26.3735C19.3366 26.3694 20.1131 26.2549 20.1131 25.594V25.0798C20.0864 25.0564 20.0619 25.0306 20.036 25.0063H19.5839C19.0745 25.0063 18.9774 25.3322 18.9774 25.3322C18.6373 25.1778 18.6618 24.7175 18.6618 24.7175C18.1523 25.0541 17.5697 24.886 17.5697 24.886C17.9569 24.7175 17.8856 24.2848 17.8856 24.2848C17.3037 24.4776 16.8913 23.9486 16.8913 23.9486C17.3762 23.9486 17.4624 23.4913 17.4624 23.4913V19.2373C17.4624 19.2373 17.4863 18.5356 17.6805 18.0042L17.683 18C18.025 16.7942 18.9841 15.9365 18.9841 15.9365C18.9841 15.9365 20.1525 14.7639 22.01 14.25C23.5727 13.8184 23.9849 15.1811 24.0771 15.627C24.2817 15.6728 25.6538 16.0041 26.2263 16.7462C26.6231 17.2606 26.6624 18.4411 26.6397 19.2252L26.6454 19.2375V23.4922C26.6454 23.4922 26.7307 23.9493 27.2163 23.9493C27.2163 23.9493 26.8041 24.4781 26.2218 24.2855C26.2218 24.2855 26.1507 24.7182 26.538 24.8867C26.538 24.8867 25.9547 25.0548 25.4451 24.7182C25.4451 24.7182 25.4696 25.1785 25.1301 25.3329C25.1301 25.3329 25.0329 25.0069 24.5234 25.0069H24.2214C24.1696 25.0552 24.1184 25.1047 24.0645 25.1499V25.5943C24.0645 26.2552 24.8412 26.3694 24.9026 26.3803C25.118 26.4443 25.449 26.533 25.6997 26.5836C25.7139 26.5207 25.7311 26.4588 25.7412 26.3944L27.5629 26.8443C27.5675 26.8452 27.5727 26.8466 27.5776 26.8476L27.6384 26.8629L27.639 26.8689C28.1246 27.0059 28.543 27.3564 28.7352 27.8611L30 31.1666H14L15.2639 27.8611ZM24.0645 24.6437C24.648 24.0656 25.0613 23.3204 25.2483 22.7496C25.2728 22.6741 25.3627 22.6235 25.4423 22.6235C25.7123 22.6235 26.0586 22.2159 26.149 21.5576C26.2412 20.8832 25.9967 20.372 25.6873 20.3325C25.6634 20.3325 25.6384 20.3356 25.6123 20.342C25.5616 20.3553 25.5116 20.3428 25.469 20.3158C23.997 20.2242 23.8383 18.8076 23.9225 17.7744C23.8679 17.762 23.8112 17.7511 23.753 17.7405C23.2924 18.8113 22.1377 20.3307 19.2834 20.3307H18.7474C18.7203 20.3391 18.6912 20.3423 18.6616 20.3372C18.6439 20.3344 18.6267 20.3321 18.5786 20.3344C18.3012 20.3718 18.0562 20.8832 18.148 21.5575C18.2366 22.2041 18.5786 22.6152 18.8448 22.625C18.9221 22.6279 18.9891 22.6783 19.013 22.7512C19.191 23.2949 19.5736 23.9983 20.1138 24.5633C20.2294 24.6842 20.3537 24.798 20.4833 24.9036C20.9514 25.2837 21.5065 25.5441 22.13 25.5441C22.718 25.5441 23.2451 25.3131 23.6959 24.9686C23.8252 24.8688 23.948 24.7595 24.0645 24.6437ZM24.8253 26.7364C24.4347 26.6848 23.6954 26.3803 23.6954 25.5942V25.422C23.2373 25.7185 22.7128 25.9097 22.1295 25.9097C21.5115 25.9097 20.9599 25.6952 20.4828 25.3674V25.5942C20.4828 26.3803 19.7431 26.6848 19.3809 26.7303C19.3181 26.7485 18.9132 26.8673 18.5758 26.9376C18.5948 26.9955 18.6122 27.0553 18.6336 27.1122C18.6928 27.2663 18.7604 27.4172 18.8394 27.561C18.8476 27.5758 18.857 27.5898 18.865 27.6046C18.9476 27.7485 19.0389 27.888 19.1393 28.019C19.1462 28.0276 19.1517 28.0369 19.1586 28.045C19.2618 28.1778 19.3758 28.302 19.496 28.4196C19.5119 28.4347 19.5261 28.451 19.5422 28.4658C19.6717 28.5879 19.8096 28.7026 19.9561 28.8052V28.8224C20.5555 29.2387 21.3014 29.4843 22.0887 29.4863C22.8876 29.4838 23.6433 29.2308 24.2477 28.8031V28.7862C24.3904 28.6838 24.5251 28.5703 24.6514 28.4496C24.6661 28.4354 24.6804 28.4206 24.6952 28.406C24.8139 28.289 24.9255 28.1657 25.0278 28.0341C25.0352 28.0239 25.0419 28.0136 25.0494 28.0037C25.1488 27.872 25.2393 27.7334 25.3212 27.5891C25.3269 27.5784 25.3336 27.5686 25.3394 27.5579C25.4185 27.4145 25.4855 27.264 25.5448 27.1095C25.5664 27.0539 25.5822 26.9955 25.6015 26.9381C25.2666 26.8682 24.868 26.7505 24.8253 26.7364Z" fill="#E7F9F5"/>
</svg>
