<svg width="100" height="82" viewBox="0 0 100 82" fill="none" xmlns="http://www.w3.org/2000/svg">
<path fill-rule="evenodd" clip-rule="evenodd" d="M4.54545 4.54857C4.54545 2.03263 6.61364 0 9.05455 0H90.9455C93.4364 0 95.4545 2.03263 95.4545 4.54857V55.8963L85.5645 46.0681C85.4583 45.9626 85.3323 45.8789 85.1935 45.8218C85.0547 45.7646 84.906 45.7352 84.7558 45.7352C84.6056 45.7352 84.4569 45.7646 84.3182 45.8218C84.1794 45.8789 84.0534 45.9626 83.9472 46.0681L82.0677 44.2004C83.6954 41.6735 84.5709 38.7408 84.5932 35.7406C84.6154 32.7404 83.7835 29.7951 82.1934 27.2446C80.6033 24.6942 78.3199 22.6426 75.6067 21.3265C72.8935 20.0105 69.8611 19.4837 66.8595 19.807C63.858 20.1303 61.0096 21.2904 58.6431 23.1535C56.2766 25.0166 54.4885 27.5068 53.4852 30.3365C52.4819 33.1663 52.3043 36.2203 52.9728 39.1461C53.6414 42.0719 55.1288 44.7502 57.2635 46.8718C59.8472 49.4322 63.2322 51.0406 66.8597 51.4314C70.4872 51.8222 74.1404 50.9721 77.2162 49.0214L79.0958 50.8894C78.9896 50.9949 78.9054 51.1202 78.8479 51.2581C78.7905 51.396 78.7609 51.5437 78.7609 51.693C78.7609 51.8422 78.7905 51.99 78.8479 52.1278C78.9054 52.2657 78.9896 52.391 79.0958 52.4965L89.8887 63.2218C89.7453 63.2321 89.6005 63.2373 89.4545 63.2373H10.5454C7.23174 63.2373 4.54545 60.551 4.54545 57.2373V4.54857ZM0 76.7881C0 74.2935 2.02231 72.2712 4.51695 72.2712H95.4831C97.9777 72.2712 100 74.2935 100 76.7881C100 79.2828 97.9777 81.3051 95.4831 81.3051H4.51695C2.02231 81.3051 0 79.2828 0 76.7881ZM62.115 42.0506C63.3944 43.322 65.0244 44.1878 66.799 44.5386C68.5735 44.8894 70.4129 44.7093 72.0845 44.0213C73.7561 43.3332 75.1848 42.168 76.19 40.673C77.1953 39.1781 77.7318 37.4204 77.7318 35.6224C77.7318 33.8244 77.1953 32.0668 76.19 30.5718C75.1848 29.0768 73.7561 27.9117 72.0845 27.2236C70.4129 26.5355 68.5735 26.3555 66.799 26.7063C65.0244 27.0571 63.3944 27.9229 62.115 29.1943C61.2584 30.0345 60.5783 31.0354 60.1141 32.1389C59.6499 33.2424 59.4109 34.4265 59.4109 35.6226C59.411 36.8186 59.6501 38.0027 60.1144 39.1062C60.5787 40.2096 61.2589 41.2105 62.1156 42.0506H62.115ZM16.0418 40.6484C14.8855 40.6484 13.9481 41.5858 13.9481 42.7421C13.9481 43.8984 14.8855 44.8358 16.0418 44.8358H42.0534C43.2097 44.8358 44.1471 43.8984 44.1471 42.7421C44.1471 41.5858 43.2097 40.6484 42.0534 40.6484H16.0418ZM13.9481 36.2287C13.9481 35.0724 14.8855 34.135 16.0418 34.135H33.1576C34.3139 34.135 35.2513 35.0724 35.2513 36.2287C35.2513 37.385 34.3139 38.3224 33.1576 38.3224H16.0418C14.8855 38.3224 13.9481 37.385 13.9481 36.2287ZM16.0418 27.6216C14.8854 27.6216 13.9481 28.559 13.9481 29.7153C13.9481 30.8716 14.8854 31.809 16.0418 31.809H38.3077C39.4641 31.809 40.4014 30.8716 40.4014 29.7153C40.4014 28.559 39.4641 27.6216 38.3077 27.6216H16.0418Z" fill="#1C2731"/>
</svg>
