<svg width="366" height="227" viewBox="0 0 366 227" fill="none" xmlns="http://www.w3.org/2000/svg">
<g filter="url(#filter0_d_129_551)">
<path fill-rule="evenodd" clip-rule="evenodd" d="M66.293 193.324C32.1021 189.971 5.5 164.059 5.5 132.592C5.5 98.8476 36.0903 71.4927 73.8253 71.4927C81.6579 71.4927 89.1828 72.6713 96.1901 74.8409C106.12 54.535 129.448 40.279 156.644 40.279C158.729 40.279 160.791 40.3628 162.826 40.5266C172.313 17.9035 197.174 1.76001 226.349 1.76001C263.703 1.76001 293.985 28.223 293.985 60.8667C293.985 64.0841 293.69 67.2415 293.124 70.3193C294.662 70.2166 296.215 70.1644 297.78 70.1644C333.8 70.1644 363 97.8167 363 131.928C363 166.038 333.8 193.691 297.78 193.691C296.299 193.691 294.829 193.644 293.372 193.552C292.151 193.644 290.918 193.691 289.674 193.691H73.8253H72.5873C70.4286 193.691 68.3297 193.566 66.293 193.324Z" fill="#415B71"/>
<path d="M296.299 197.73V194.058C296.299 191.137 297.548 188.335 299.77 186.269C301.993 184.203 305.007 183.043 308.151 183.043C311.294 183.043 314.309 184.203 316.531 186.269C318.754 188.335 320.002 191.137 320.002 194.058V197.73H321.978C323.025 197.73 324.03 198.117 324.771 198.805C325.512 199.494 325.928 200.428 325.928 201.401V216.088C325.928 217.062 325.512 217.996 324.771 218.685C324.03 219.373 323.025 219.76 321.978 219.76H294.324C293.276 219.76 292.271 219.373 291.53 218.685C290.789 217.996 290.373 217.062 290.373 216.088V201.401C290.373 199.382 292.151 197.73 294.324 197.73H296.299ZM306.175 210.085V214.252H310.126V210.085C310.879 209.681 311.468 209.057 311.801 208.31C312.133 207.564 312.192 206.736 311.967 205.955C311.742 205.174 311.246 204.484 310.556 203.992C309.866 203.5 309.02 203.234 308.151 203.234C307.281 203.234 306.436 203.5 305.746 203.992C305.056 204.484 304.56 205.174 304.335 205.955C304.11 206.736 304.168 207.564 304.501 208.31C304.834 209.057 305.422 209.681 306.175 210.085ZM302.225 194.058V197.73H314.077V194.058C314.077 192.597 313.452 191.196 312.341 190.164C311.23 189.131 309.722 188.55 308.151 188.55C306.579 188.55 305.072 189.131 303.961 190.164C302.849 191.196 302.225 192.597 302.225 194.058Z" fill="#F8E44F"/>
<path d="M146.139 88.678C144.124 88.678 142.598 88.2314 141.559 87.3381C140.52 86.4358 140 85.0959 140 83.3186V82.0608H144.293V82.594C144.293 83.6057 144.462 84.3622 144.799 84.8635C145.136 85.3648 145.729 85.6155 146.576 85.6155C147.296 85.6155 147.848 85.4241 148.23 85.0413C148.622 84.6493 148.818 84.0979 148.818 83.387C148.818 82.8492 148.7 82.3935 148.463 82.0198C148.235 81.6461 147.893 81.318 147.438 81.0354L144.088 78.9846C142.502 78.0002 141.472 77.0979 140.998 76.2776C140.524 75.4482 140.287 74.4 140.287 73.1331C140.287 71.4195 140.866 70.0979 142.023 69.1682C143.19 68.2294 144.84 67.76 146.973 67.76C148.878 67.76 150.327 68.1702 151.32 68.9905C152.323 69.8017 152.824 71.1825 152.824 73.1331V73.8303H148.682V73.3518C148.682 71.6018 148.003 70.7268 146.645 70.7268C146.016 70.7268 145.514 70.9319 145.141 71.342C144.776 71.7431 144.594 72.2854 144.594 72.969C144.594 73.3883 144.694 73.7802 144.895 74.1448C145.104 74.5094 145.432 74.8329 145.879 75.1155L149.967 77.7268C151.061 78.4104 151.854 79.1213 152.346 79.8596C152.838 80.5888 153.084 81.5868 153.084 82.8538C153.084 84.7952 152.514 86.2535 151.375 87.2288C150.236 88.1949 148.49 88.678 146.139 88.678Z" fill="white"/>
<path d="M168.272 85.2053C168.272 85.3056 168.276 85.4651 168.285 85.6838L168.326 86.4631C168.326 86.7548 168.34 87.0647 168.368 87.3928C168.404 87.7118 168.445 88.0172 168.491 88.3088H164.826L164.635 86.4358C164.198 87.165 163.683 87.7027 163.09 88.0491C162.498 88.3863 161.8 88.5549 160.998 88.5549C159.759 88.5549 158.811 88.1767 158.155 87.4202C157.507 86.6545 157.184 85.5699 157.184 84.1663C157.184 82.5165 157.617 81.3134 158.483 80.5569C159.358 79.7913 160.998 79.4084 163.405 79.4084H164.43V77.8088C164.43 77.2346 164.316 76.7971 164.088 76.4963C163.86 76.1956 163.446 76.0452 162.844 76.0452C162.297 76.0452 161.892 76.2138 161.627 76.551C161.372 76.8883 161.244 77.4579 161.244 78.26H157.526V78.0549C157.526 76.6513 157.959 75.6077 158.825 74.9241C159.7 74.2314 161.085 73.885 162.981 73.885C164.804 73.885 166.139 74.2405 166.987 74.9514C167.843 75.6532 168.272 76.8017 168.272 78.3967V85.2053ZM164.553 82.594V81.4729H164.239C163.218 81.4729 162.438 81.6005 161.901 81.8557C161.372 82.1018 161.094 82.6487 161.067 83.4963L161.053 83.8518C161.053 84.7633 161.172 85.3785 161.409 85.6975C161.655 86.0165 162.019 86.176 162.502 86.176C163.168 86.176 163.673 85.898 164.02 85.342C164.375 84.7861 164.553 83.87 164.553 82.594Z" fill="white"/>
<path d="M179.276 70.5354L179.057 70.4944H178.934C178.415 70.4944 178.014 70.6539 177.731 70.9729C177.458 71.2828 177.321 71.939 177.321 72.9417V74.1721H179.249V76.5784H177.321V88.3088H173.452V76.5784H171.688V74.1721H173.452V71.7932C173.452 70.4443 173.757 69.469 174.368 68.8674C174.988 68.2568 176.204 67.9514 178.018 67.9514C178.173 67.9514 178.342 67.956 178.524 67.9651L179.331 68.0061L179.276 70.5354Z" fill="white"/>
<path d="M186.425 81.8694V83.2639C186.425 84.2756 186.566 85.0002 186.849 85.4377C187.14 85.8752 187.587 86.094 188.188 86.094C188.744 86.094 189.155 85.9071 189.419 85.5334C189.683 85.1506 189.815 84.581 189.815 83.8245V83.551H193.821C193.73 85.2646 193.206 86.5315 192.249 87.3518C191.292 88.1721 189.884 88.5823 188.024 88.5823C186.675 88.5823 185.6 88.3772 184.798 87.967C183.996 87.5478 183.399 86.8687 183.007 85.9299C182.615 84.9911 182.419 83.4143 182.419 81.1995C182.419 79.0667 182.606 77.5445 182.979 76.6331C183.353 75.7125 183.955 75.0198 184.784 74.5549C185.614 74.0901 186.776 73.8577 188.27 73.8577C190.303 73.8577 191.752 74.3909 192.618 75.4573C193.493 76.5146 193.931 78.1461 193.931 80.3518V81.0901L193.903 81.8694H186.425ZM189.843 79.6819V78.7659C189.843 77.982 189.701 77.385 189.419 76.9749C189.145 76.5647 188.726 76.3596 188.161 76.3596C187.55 76.3596 187.108 76.592 186.835 77.0569C186.561 77.5126 186.425 78.2463 186.425 79.2581V79.6819H189.843Z" fill="white"/>
<path d="M146.139 123.678C144.124 123.678 142.598 123.231 141.559 122.338C140.52 121.436 140 120.096 140 118.319V117.061H144.293V117.594C144.293 118.606 144.462 119.362 144.799 119.864C145.136 120.365 145.729 120.615 146.576 120.615C147.296 120.615 147.848 120.424 148.23 120.041C148.622 119.649 148.818 119.098 148.818 118.387C148.818 117.849 148.7 117.393 148.463 117.02C148.235 116.646 147.893 116.318 147.438 116.035L144.088 113.985C142.502 113 141.472 112.098 140.998 111.278C140.524 110.448 140.287 109.4 140.287 108.133C140.287 106.42 140.866 105.098 142.023 104.168C143.19 103.229 144.84 102.76 146.973 102.76C148.878 102.76 150.327 103.17 151.32 103.99C152.323 104.802 152.824 106.183 152.824 108.133V108.83H148.682V108.352C148.682 106.602 148.003 105.727 146.645 105.727C146.016 105.727 145.514 105.932 145.141 106.342C144.776 106.743 144.594 107.285 144.594 107.969C144.594 108.388 144.694 108.78 144.895 109.145C145.104 109.509 145.432 109.833 145.879 110.115L149.967 112.727C151.061 113.41 151.854 114.121 152.346 114.86C152.838 115.589 153.084 116.587 153.084 117.854C153.084 119.795 152.514 121.253 151.375 122.229C150.236 123.195 148.49 123.678 146.139 123.678Z" fill="white"/>
<path d="M161.272 116.869V118.264C161.272 119.276 161.413 120 161.696 120.438C161.987 120.875 162.434 121.094 163.035 121.094C163.591 121.094 164.002 120.907 164.266 120.533C164.53 120.151 164.662 119.581 164.662 118.824V118.551H168.668C168.577 120.265 168.053 121.531 167.096 122.352C166.139 123.172 164.731 123.582 162.871 123.582C161.522 123.582 160.447 123.377 159.645 122.967C158.843 122.548 158.246 121.869 157.854 120.93C157.462 119.991 157.266 118.414 157.266 116.199C157.266 114.067 157.453 112.545 157.826 111.633C158.2 110.712 158.802 110.02 159.631 109.555C160.461 109.09 161.623 108.858 163.118 108.858C165.15 108.858 166.599 109.391 167.465 110.457C168.34 111.515 168.778 113.146 168.778 115.352V116.09L168.75 116.869H161.272ZM164.69 114.682V113.766C164.69 112.982 164.548 112.385 164.266 111.975C163.993 111.565 163.573 111.36 163.008 111.36C162.397 111.36 161.955 111.592 161.682 112.057C161.409 112.513 161.272 113.246 161.272 114.258V114.682H164.69Z" fill="white"/>
<path d="M184.266 114.203H180.479C180.479 113.72 180.452 113.278 180.397 112.877C180.352 112.467 180.215 112.125 179.987 111.852C179.759 111.578 179.381 111.442 178.852 111.442C178.159 111.442 177.667 111.706 177.376 112.235C177.093 112.763 176.952 113.748 176.952 115.188V117.211C176.952 118.66 177.079 119.658 177.335 120.205C177.59 120.743 178.059 121.012 178.743 121.012C179.372 121.012 179.827 120.793 180.11 120.356C180.393 119.918 180.534 119.262 180.534 118.387V118.1H184.348V118.442C184.348 120.073 183.874 121.326 182.926 122.201C181.988 123.067 180.538 123.5 178.579 123.5C176.801 123.5 175.425 123.026 174.45 122.078C173.484 121.13 173.001 119.636 173.001 117.594V116.446C173.001 114.459 173.146 112.973 173.438 111.989C173.73 111.004 174.359 110.252 175.325 109.733C176.3 109.204 177.439 108.94 178.743 108.94C180.648 108.94 182.042 109.359 182.926 110.198C183.82 111.036 184.266 112.235 184.266 113.793V114.203Z" fill="white"/>
<path d="M192.946 109.172V118.879C192.946 119.627 193.051 120.178 193.261 120.533C193.47 120.889 193.803 121.067 194.259 121.067C194.751 121.067 195.125 120.866 195.38 120.465C195.635 120.055 195.763 119.508 195.763 118.824V109.172H199.714V120.397L199.755 122.53C199.755 122.803 199.759 123.063 199.769 123.309H195.94L195.886 121.791C195.476 122.42 195.002 122.871 194.464 123.145C193.926 123.418 193.279 123.555 192.522 123.555C191.401 123.555 190.535 123.231 189.925 122.584C189.323 121.937 189.022 121.03 189.022 119.864V109.172H192.946Z" fill="white"/>
<path d="M212.099 112.412C211.944 112.394 211.766 112.385 211.566 112.385C210.435 112.385 209.652 112.64 209.214 113.151C208.777 113.652 208.558 114.481 208.558 115.639V123.309H204.62V109.172H208.366V110.99C208.731 110.243 209.196 109.714 209.761 109.405C210.335 109.095 211.046 108.94 211.894 108.94H212.099V112.412Z" fill="white"/>
<path d="M219.316 116.869V118.264C219.316 119.276 219.457 120 219.74 120.438C220.032 120.875 220.478 121.094 221.08 121.094C221.636 121.094 222.046 120.907 222.31 120.533C222.574 120.151 222.707 119.581 222.707 118.824V118.551H226.713C226.621 120.265 226.097 121.531 225.14 122.352C224.183 123.172 222.775 123.582 220.916 123.582C219.567 123.582 218.491 123.377 217.689 122.967C216.887 122.548 216.29 121.869 215.898 120.93C215.506 119.991 215.31 118.414 215.31 116.199C215.31 114.067 215.497 112.545 215.871 111.633C216.244 110.712 216.846 110.02 217.675 109.555C218.505 109.09 219.667 108.858 221.162 108.858C223.194 108.858 224.643 109.391 225.509 110.457C226.384 111.515 226.822 113.146 226.822 115.352V116.09L226.795 116.869H219.316ZM222.734 114.682V113.766C222.734 112.982 222.593 112.385 222.31 111.975C222.037 111.565 221.617 111.36 221.052 111.36C220.442 111.36 220 111.592 219.726 112.057C219.453 112.513 219.316 113.246 219.316 114.258V114.682H222.734Z" fill="white"/>
<path d="M151.539 138.088V141.205H144.73V146.182H151.006V149.299H144.73V155.151H151.758V158.309H140.506V138.088H151.539Z" fill="white"/>
<path d="M166.85 158.309H162.912V148.615C162.912 147.695 162.789 147.089 162.543 146.797C162.297 146.505 161.951 146.36 161.504 146.36C161.03 146.36 160.647 146.537 160.356 146.893C160.073 147.248 159.932 147.759 159.932 148.424V158.309H155.994V144.172H159.877L159.932 145.594C160.688 144.455 161.782 143.885 163.213 143.885C164.334 143.885 165.218 144.181 165.866 144.774C166.522 145.366 166.85 146.237 166.85 147.385V158.309Z" fill="white"/>
<path d="M182.68 149.203H178.893C178.893 148.72 178.866 148.278 178.811 147.877C178.766 147.467 178.629 147.125 178.401 146.852C178.173 146.578 177.795 146.442 177.266 146.442C176.574 146.442 176.081 146.706 175.79 147.235C175.507 147.763 175.366 148.748 175.366 150.188V152.211C175.366 153.66 175.493 154.658 175.749 155.205C176.004 155.743 176.473 156.012 177.157 156.012C177.786 156.012 178.242 155.793 178.524 155.356C178.807 154.918 178.948 154.262 178.948 153.387V153.1H182.762V153.442C182.762 155.073 182.288 156.326 181.34 157.201C180.402 158.067 178.952 158.5 176.993 158.5C175.215 158.5 173.839 158.026 172.864 157.078C171.898 156.13 171.415 154.636 171.415 152.594V151.446C171.415 149.459 171.561 147.973 171.852 146.989C172.144 146.004 172.773 145.252 173.739 144.733C174.714 144.204 175.853 143.94 177.157 143.94C179.062 143.94 180.456 144.359 181.34 145.198C182.234 146.036 182.68 147.235 182.68 148.793V149.203Z" fill="white"/>
<path d="M194.833 147.412C194.678 147.394 194.5 147.385 194.3 147.385C193.17 147.385 192.386 147.64 191.948 148.151C191.511 148.652 191.292 149.481 191.292 150.639V158.309H187.354V144.172H191.101V145.99C191.465 145.243 191.93 144.714 192.495 144.405C193.069 144.095 193.78 143.94 194.628 143.94H194.833V147.412Z" fill="white"/>
<path d="M200.956 144.172L203.007 154.112L205.154 144.172H208.968L203.513 163.682H199.357L200.874 158.446L197.033 144.172H200.956Z" fill="white"/>
<path d="M223.595 151.555C223.595 154.344 223.263 156.208 222.597 157.147C221.932 158.086 220.92 158.555 219.562 158.555C218.906 158.555 218.327 158.432 217.826 158.186C217.324 157.94 216.869 157.543 216.459 156.996V163.682H212.507V144.172H216.199L216.254 145.731C216.636 145.102 217.083 144.642 217.593 144.35C218.104 144.058 218.733 143.912 219.48 143.912C220.929 143.912 221.977 144.4 222.625 145.375C223.272 146.351 223.595 148.41 223.595 151.555ZM216.281 151.596C216.281 153.583 216.427 154.845 216.718 155.383C217.01 155.912 217.461 156.176 218.072 156.176C218.746 156.176 219.188 155.834 219.398 155.151C219.617 154.458 219.726 153.186 219.726 151.336C219.726 149.304 219.589 147.955 219.316 147.289C219.043 146.624 218.591 146.291 217.963 146.291C217.334 146.291 216.896 146.633 216.65 147.317C216.404 148 216.281 149.427 216.281 151.596Z" fill="white"/>
<path d="M231.961 144.172H234.148V146.688H231.961V154.194C231.961 154.813 232.047 155.255 232.221 155.52C232.403 155.775 232.745 155.903 233.246 155.903H233.643C233.779 155.903 233.92 155.893 234.066 155.875V158.336C233.802 158.364 233.506 158.386 233.178 158.405C232.859 158.432 232.54 158.446 232.221 158.446C230.781 158.446 229.741 158.149 229.103 157.557C228.475 156.955 228.16 155.934 228.16 154.494V146.688H226.533V144.172H228.187V141.875L231.961 140.248V144.172Z" fill="white"/>
<path d="M241.324 151.869V153.264C241.324 154.276 241.466 155 241.748 155.438C242.04 155.875 242.487 156.094 243.088 156.094C243.644 156.094 244.054 155.907 244.319 155.533C244.583 155.151 244.715 154.581 244.715 153.824V153.551H248.721C248.63 155.265 248.106 156.531 247.149 157.352C246.192 158.172 244.783 158.582 242.924 158.582C241.575 158.582 240.5 158.377 239.698 157.967C238.895 157.548 238.298 156.869 237.906 155.93C237.515 154.991 237.319 153.414 237.319 151.199C237.319 149.067 237.505 147.545 237.879 146.633C238.253 145.712 238.854 145.02 239.684 144.555C240.513 144.09 241.675 143.858 243.17 143.858C245.203 143.858 246.652 144.391 247.518 145.457C248.393 146.515 248.83 148.146 248.83 150.352V151.09L248.803 151.869H241.324ZM244.742 149.682V148.766C244.742 147.982 244.601 147.385 244.319 146.975C244.045 146.565 243.626 146.36 243.061 146.36C242.45 146.36 242.008 146.592 241.735 147.057C241.461 147.513 241.324 148.246 241.324 149.258V149.682H244.742Z" fill="white"/>
<path d="M264.141 138.088V158.309H260.422L260.395 156.737C260.03 157.356 259.584 157.817 259.055 158.117C258.527 158.409 257.889 158.555 257.141 158.555C255.728 158.555 254.694 158.054 254.038 157.051C253.381 156.048 253.053 154.412 253.053 152.143V150.106C253.053 147.9 253.372 146.319 254.01 145.362C254.657 144.395 255.674 143.912 257.059 143.912C257.743 143.912 258.335 144.045 258.836 144.309C259.347 144.564 259.798 144.965 260.19 145.512V138.088H264.141ZM260.368 150.639C260.368 148.898 260.226 147.74 259.944 147.166C259.661 146.583 259.215 146.291 258.604 146.291C258.003 146.291 257.57 146.583 257.305 147.166C257.05 147.74 256.922 148.775 256.922 150.27V152.006C256.922 153.51 257.055 154.586 257.319 155.233C257.583 155.88 258.03 156.203 258.659 156.203C259.297 156.203 259.739 155.852 259.985 155.151C260.24 154.449 260.368 153.309 260.368 151.733V150.639Z" fill="white"/>
</g>
<defs>
<filter id="filter0_d_129_551" x="0.5" y="0.76001" width="365.5" height="226" filterUnits="userSpaceOnUse" color-interpolation-filters="sRGB">
<feFlood flood-opacity="0" result="BackgroundImageFix"/>
<feColorMatrix in="SourceAlpha" type="matrix" values="0 0 0 0 0 0 0 0 0 0 0 0 0 0 0 0 0 0 127 0" result="hardAlpha"/>
<feOffset dx="-1" dy="3"/>
<feGaussianBlur stdDeviation="2"/>
<feComposite in2="hardAlpha" operator="out"/>
<feColorMatrix type="matrix" values="0 0 0 0 0.254902 0 0 0 0 0.356863 0 0 0 0 0.443137 0 0 0 0.37 0"/>
<feBlend mode="normal" in2="BackgroundImageFix" result="effect1_dropShadow_129_551"/>
<feBlend mode="normal" in="SourceGraphic" in2="effect1_dropShadow_129_551" result="shape"/>
</filter>
</defs>
</svg>
