<svg width="76" height="78" viewBox="0 0 76 78" fill="none" xmlns="http://www.w3.org/2000/svg">
<path d="M48.4652 30.3333C52.1379 30.3333 55.1152 33.7285 55.1152 37.9167V58.4957C55.1152 69.2675 47.4574 78 38.0114 78C28.5651 78 20.9073 69.2675 20.9073 58.4957V37.9167C20.9073 33.7285 23.8846 30.3333 27.5573 30.3333H48.4652ZM19.4989 30.3293C18.171 32.1611 17.3142 34.4535 17.1402 36.9651L17.1073 37.9167V58.4957C17.1073 62.1643 17.8341 65.6396 19.1325 68.744C17.8819 69.1297 16.5642 69.3333 15.2047 69.3333C6.80739 69.3333 0 61.5706 0 51.9948V37.9167C0 33.9378 2.68702 30.6748 6.10459 30.3585L6.65 30.3333L19.4989 30.3293ZM56.5239 30.3293L69.35 30.3333C73.0227 30.3333 76 33.7285 76 37.9167V52C76 61.5728 69.1946 69.3333 60.8 69.3333C59.4457 69.3333 58.1324 69.1314 56.8826 68.7522C58.0249 66.0313 58.7244 63.0292 58.8814 59.8624L58.9152 58.4957V37.9167C58.9152 35.0337 58.0176 32.3904 56.5239 30.3293ZM38 0C44.2962 0 49.4 5.82032 49.4 13C49.4 20.1797 44.2962 26 38 26C31.7038 26 26.6 20.1797 26.6 13C26.6 5.82032 31.7038 0 38 0ZM62.7 4.33333C67.9467 4.33333 72.2 9.18359 72.2 15.1667C72.2 21.1497 67.9467 26 62.7 26C57.4533 26 53.2 21.1497 53.2 15.1667C53.2 9.18359 57.4533 4.33333 62.7 4.33333ZM13.3 4.33333C18.5467 4.33333 22.8 9.18359 22.8 15.1667C22.8 21.1497 18.5467 26 13.3 26C8.0533 26 3.8 21.1497 3.8 15.1667C3.8 9.18359 8.0533 4.33333 13.3 4.33333Z" fill="#1C2731"/>
</svg>
