<svg width="61" height="80" viewBox="0 0 61 80" fill="none" xmlns="http://www.w3.org/2000/svg">
<path d="M30.2439 25.3659C45.2751 25.3659 60.4878 21.0093 60.4878 12.6829C60.4878 4.35659 45.2751 0 30.2439 0C15.2127 0 0 4.35659 0 12.6829C0 21.0093 15.2127 25.3659 30.2439 25.3659Z" fill="#1C2731"/>
<path d="M0 31.2195C0 38.9054 15.2127 42.9268 30.2439 42.9268C45.2751 42.9268 60.4878 38.9054 60.4878 31.2195V25.3659C60.4878 33.0517 45.2751 37.0732 30.2439 37.0732C15.2127 37.0732 0 33.0517 0 25.3659V31.2195Z" fill="#1C2731"/>
<path d="M0 49.1057C0 57.2185 15.2127 61.4634 30.2439 61.4634C45.2751 61.4634 60.4878 57.2185 60.4878 49.1057V42.9268C60.4878 51.0397 45.2751 55.2846 30.2439 55.2846C15.2127 55.2846 0 51.0397 0 42.9268V49.1057Z" fill="#1C2731"/>
<path d="M0 67.6423C0 75.7551 15.2127 80 30.2439 80C45.2751 80 60.4878 75.7551 60.4878 67.6423V61.4634C60.4878 69.5763 45.2751 73.8211 30.2439 73.8211C15.2127 73.8211 0 69.5763 0 61.4634V67.6423Z" fill="#1C2731"/>
</svg>
